<svg width="24" height="24" viewBox="0 0 24 24" fill="none" xmlns="http://www.w3.org/2000/svg">
<path fill-rule="evenodd" clip-rule="evenodd" d="M12.994 4.03164C12.9914 4.04002 12.9889 4.0485 12.988 4.058C17.487 4.552 21 8.372 21 13C21 17.963 16.962 22 12 22C7.038 22 3 17.963 3 13C3 8.372 6.513 4.552 11.012 4.058C11.0111 4.0485 11.0086 4.04002 11.006 4.03164C11.003 4.0215 11 4.0115 11 4V3H10C9.448 3 9 2.553 9 2C9 1.447 9.448 1 10 1H14C14.552 1 15 1.447 15 2C15 2.553 14.552 3 14 3H13V4C13 4.0115 12.997 4.0215 12.994 4.03164ZM12 14H15C15.552 14 16 13.553 16 13C16 12.447 15.552 12 15 12H13V10C13 9.447 12.552 9 12 9C11.448 9 11 9.447 11 10V13C11 13.553 11.448 14 12 14Z" fill="#4989EA"/>
<mask id="mask0" mask-type="alpha" maskUnits="userSpaceOnUse" x="3" y="1" width="18" height="21">
<path fill-rule="evenodd" clip-rule="evenodd" d="M12.994 4.03164C12.9914 4.04002 12.9889 4.0485 12.988 4.058C17.487 4.552 21 8.372 21 13C21 17.963 16.962 22 12 22C7.038 22 3 17.963 3 13C3 8.372 6.513 4.552 11.012 4.058C11.0111 4.0485 11.0086 4.04002 11.006 4.03164C11.003 4.0215 11 4.0115 11 4V3H10C9.448 3 9 2.553 9 2C9 1.447 9.448 1 10 1H14C14.552 1 15 1.447 15 2C15 2.553 14.552 3 14 3H13V4C13 4.0115 12.997 4.0215 12.994 4.03164ZM12 14H15C15.552 14 16 13.553 16 13C16 12.447 15.552 12 15 12H13V10C13 9.447 12.552 9 12 9C11.448 9 11 9.447 11 10V13C11 13.553 11.448 14 12 14Z" fill="white"/>
</mask>
<g mask="url(#mask0)">
</g>
</svg>
