<svg width="24" height="24" viewBox="0 0 24 24" fill="none" xmlns="http://www.w3.org/2000/svg">
<path d="M12.0005 2.00049C6.47749 2.00049 2.00049 6.47749 2.00049 12.0005C2.00049 17.5225 6.47749 22.0005 12.0005 22.0005C17.5235 22.0005 22.0005 17.5225 22.0005 12.0005C22.0005 6.47749 17.5235 2.00049 12.0005 2.00049" fill="#17B09E"/>
<path d="M8.66668 10H7.33334C7.14926 10 7 10.1492 7 10.3333V15.6667C7 15.8508 7.14924 16 7.33334 16H8.66665C8.85072 16 9 15.8508 9 15.6667V10.3333C9 10.1492 8.85078 10 8.66668 10Z" fill="white"/>
<path d="M17.9928 10.5181C17.9286 9.96409 17.4017 9.57139 16.834 9.57139H13.9989C14.2399 9.14773 14.3692 7.9493 14.3635 7.45973C14.354 6.64939 13.6707 6 12.8456 6H12.5455C12.3445 6 12.1818 6.15973 12.1818 6.35715C12.1818 7.18302 11.8544 8.67368 11.2369 9.2802C10.8213 9.68845 10.4659 9.83635 10 10.065V15.4239C10.7133 15.6574 11.619 16 12.9995 16H15.3783C16.1621 16 16.7725 15.287 16.4688 14.5338C16.9315 14.41 17.2728 13.9932 17.2728 13.5C17.2728 13.3608 17.2454 13.2276 17.196 13.1052C17.9759 12.8965 18.2628 11.9509 17.7216 11.3571C17.9205 11.139 18.0301 10.8405 17.9928 10.5181Z" fill="white"/>
</svg>
