<svg width="30" height="30" viewBox="0 0 30 30" fill="none" xmlns="http://www.w3.org/2000/svg">
<path fill-rule="evenodd" clip-rule="evenodd" d="M7.92893 7.92898C11.8279 4.02999 18.1721 4.02999 22.0711 7.92898C25.9701 11.828 25.9701 18.1721 22.0711 22.0711C18.1721 25.9701 11.8279 25.9701 7.92893 22.0711C4.02995 18.1721 4.02995 11.828 7.92893 7.92898ZM15 16.4143L16.4142 17.8285C16.8031 18.2174 17.4395 18.2174 17.8284 17.8285C18.2173 17.4396 18.2173 16.8032 17.8284 16.4143L16.4142 15L17.8284 13.5858C18.2173 13.1969 18.2173 12.5605 17.8284 12.1716C17.4395 11.7827 16.8031 11.7827 16.4142 12.1716L15 13.5858L13.5858 12.1716C13.1969 11.7827 12.5605 11.7827 12.1716 12.1716C11.7827 12.5605 11.7827 13.1969 12.1716 13.5858L13.5858 15L12.1716 16.4143C11.7827 16.8032 11.7827 17.4396 12.1716 17.8285C12.5605 18.2174 13.1969 18.2174 13.5858 17.8285L15 16.4143Z" fill="#F47D7D"/>
<mask id="mask0" mask-type="alpha" maskUnits="userSpaceOnUse" x="0" y="0" width="30" height="30">
<path fill-rule="evenodd" clip-rule="evenodd" d="M7.92893 7.92898C11.8279 4.02999 18.1721 4.02999 22.0711 7.92898C25.9701 11.828 25.9701 18.1721 22.0711 22.0711C18.1721 25.9701 11.8279 25.9701 7.92893 22.0711C4.02995 18.1721 4.02995 11.828 7.92893 7.92898ZM15 16.4143L16.4142 17.8285C16.8031 18.2174 17.4395 18.2174 17.8284 17.8285C18.2173 17.4396 18.2173 16.8032 17.8284 16.4143L16.4142 15L17.8284 13.5858C18.2173 13.1969 18.2173 12.5605 17.8284 12.1716C17.4395 11.7827 16.8031 11.7827 16.4142 12.1716L15 13.5858L13.5858 12.1716C13.1969 11.7827 12.5605 11.7827 12.1716 12.1716C11.7827 12.5605 11.7827 13.1969 12.1716 13.5858L13.5858 15L12.1716 16.4143C11.7827 16.8032 11.7827 17.4396 12.1716 17.8285C12.5605 18.2174 13.1969 18.2174 13.5858 17.8285L15 16.4143Z" fill="white"/>
</mask>
<g mask="url(#mask0)">
</g>
</svg>
