<svg width="32" height="32" viewBox="0 0 32 32" fill="none" xmlns="http://www.w3.org/2000/svg">
<circle cx="16" cy="16" r="16" fill="#FFF0EF"/>
<path fill-rule="evenodd" clip-rule="evenodd" d="M22.4 11.2H23.2C23.64 11.2 24 11.56 24 12C24 12.44 23.64 12.8 23.2 12.8H22.4V21.6C22.4 22.9232 21.3232 24 20 24H12C10.6768 24 9.6 22.9232 9.6 21.6V12.8H8.8C8.36 12.8 8 12.44 8 12C8 11.56 8.36 11.2 8.8 11.2H9.6H12.8V9.8624C12.8 8.8352 13.6968 8 14.8 8H17.2C18.3032 8 19.2 8.8352 19.2 9.8624V11.2H22.4ZM14.8 9.6C14.5712 9.6 14.4 9.7384 14.4 9.8624V11.2H17.6V9.8624C17.6 9.7384 17.4288 9.6 17.2 9.6H14.8ZM18.4 20C18.84 20 19.2 19.64 19.2 19.2V16C19.2 15.56 18.84 15.2 18.4 15.2C17.96 15.2 17.6 15.56 17.6 16V19.2C17.6 19.64 17.96 20 18.4 20ZM14.4 19.2C14.4 19.64 14.04 20 13.6 20C13.16 20 12.8 19.64 12.8 19.2V16C12.8 15.56 13.16 15.2 13.6 15.2C14.04 15.2 14.4 15.56 14.4 16V19.2Z" fill="#FF837D"/>
</svg>
