<svg width="32" height="32" viewBox="0 0 32 32" fill="none" xmlns="http://www.w3.org/2000/svg">
<circle cx="16" cy="16" r="16" fill="#FFEFD2"/>
<path fill-rule="evenodd" clip-rule="evenodd" d="M23.4417 11.1078L23.4426 11.1088C24.1599 11.827 24.1889 12.969 23.5064 13.6534L15.0708 22.089C14.7661 22.3937 14.362 22.5821 13.9326 22.6215L10.0228 22.9769C9.99469 22.9797 9.96656 22.9806 9.9375 22.9806C9.69091 22.9806 9.45182 22.8831 9.27462 22.7059C9.07772 22.509 8.97928 22.2352 9.00365 21.9586L9.359 18.0489C9.39838 17.6204 9.58777 17.2153 9.89343 16.9106L18.328 8.47602C18.9862 7.81501 20.1798 7.84783 20.8745 8.54071L23.4417 11.1078ZM17.742 11.7145L20.2689 14.2413L22.0943 12.413L19.5685 9.88709L17.742 11.7145Z" fill="#FFBD4B"/>
<mask id="mask0" mask-type="alpha" maskUnits="userSpaceOnUse" x="9" y="8" width="15" height="15">
<path fill-rule="evenodd" clip-rule="evenodd" d="M23.4417 11.1078L23.4426 11.1088C24.1599 11.827 24.1889 12.969 23.5064 13.6534L15.0708 22.089C14.7661 22.3937 14.362 22.5821 13.9326 22.6215L10.0228 22.9769C9.99469 22.9797 9.96656 22.9806 9.9375 22.9806C9.69091 22.9806 9.45182 22.8831 9.27462 22.7059C9.07772 22.509 8.97928 22.2352 9.00365 21.9586L9.359 18.0489C9.39838 17.6204 9.58777 17.2153 9.89343 16.9106L18.328 8.47602C18.9862 7.81501 20.1798 7.84783 20.8745 8.54071L23.4417 11.1078ZM17.742 11.7145L20.2689 14.2413L22.0943 12.413L19.5685 9.88709L17.742 11.7145Z" fill="white"/>
</mask>
<g mask="url(#mask0)">
</g>
</svg>
