<svg width="32" height="32" viewBox="0 0 32 32" fill="none" xmlns="http://www.w3.org/2000/svg">
<circle cx="16" cy="16" r="16" fill="#E6F2FC"/>
<path fill-rule="evenodd" clip-rule="evenodd" d="M15.729 9.0046C21.706 8.8176 25.229 14.3916 25.868 15.5036C26.044 15.8126 26.044 16.1906 25.868 16.4996C25.014 17.9876 21.798 22.8576 16.271 22.9986C16.188 23.0006 16.106 23.0016 16.025 23.0016C10.162 23.0016 6.762 17.5966 6.132 16.4996C5.956 16.1906 5.956 15.8126 6.132 15.5036C6.986 14.0156 10.202 9.1456 15.729 9.0046ZM16 19.5016C14.07 19.5016 12.5 17.9316 12.5 16.0016C12.5 14.0716 14.07 12.5016 16 12.5016C17.93 12.5016 19.5 14.0716 19.5 16.0016C19.5 17.9316 17.93 19.5016 16 19.5016ZM16 14.5016C15.173 14.5016 14.5 15.1746 14.5 16.0016C14.5 16.8286 15.173 17.5016 16 17.5016C16.827 17.5016 17.5 16.8286 17.5 16.0016C17.5 15.1746 16.827 14.5016 16 14.5016Z" fill="#3397E4"/>
</svg>
