<svg width="32" height="32" viewBox="0 0 32 32" fill="none" xmlns="http://www.w3.org/2000/svg">
<path fill-rule="evenodd" clip-rule="evenodd" d="M24 10H25C25.55 10 26 10.45 26 11C26 11.55 25.55 12 25 12H24V23C24 24.654 22.654 26 21 26H11C9.346 26 8 24.654 8 23V12H7C6.45 12 6 11.55 6 11C6 10.45 6.45 10 7 10H8H12V8.328C12 7.044 13.121 6 14.5 6H17.5C18.879 6 20 7.044 20 8.328V10H24ZM14.5 8C14.214 8 14 8.173 14 8.328V10H18V8.328C18 8.173 17.786 8 17.5 8H14.5ZM19 21C19.55 21 20 20.55 20 20V16C20 15.45 19.55 15 19 15C18.45 15 18 15.45 18 16V20C18 20.55 18.45 21 19 21ZM14 20C14 20.55 13.55 21 13 21C12.45 21 12 20.55 12 20V16C12 15.45 12.45 15 13 15C13.55 15 14 15.45 14 16V20Z" fill="#888888"/>
</svg>
