<svg width="32" height="32" viewBox="0 0 32 32" fill="none" xmlns="http://www.w3.org/2000/svg">
<path d="M18.0038 26C17.766 26 17.5304 25.9244 17.3338 25.7744L12.8604 22.3911C12.5826 22.1811 12.4193 21.8533 12.4193 21.5056V17.8678L7.12376 7.62111C6.94598 7.27667 6.96042 6.86444 7.16265 6.53333C7.36376 6.20222 7.72376 6 8.11153 6H23.6671C24.0582 6 24.4204 6.20556 24.6215 6.54222C24.8215 6.87778 24.8304 7.29556 24.6449 7.63889L19.1149 17.8778V24.8889C19.1149 25.31 18.876 25.6956 18.4982 25.8844C18.3415 25.9611 18.1726 26 18.0038 26Z" fill="#888888"/>
</svg>
