<svg width="32" height="32" viewBox="0 0 32 32" fill="none" xmlns="http://www.w3.org/2000/svg">
<path fill-rule="evenodd" clip-rule="evenodd" d="M17.0898 30.0408L0.761281 13.6641C0.060351 12.9514 -0.180286 11.9052 0.138864 10.9579C0.458014 10.0106 1.28272 9.32333 2.27199 9.18015L28.9987 5.41944C29.9739 5.28979 30.9408 5.71067 31.5103 6.5128C32.0799 7.31492 32.1586 8.36646 31.7148 9.24443L21.3005 29.398C20.9128 30.1455 20.1911 30.6628 19.3586 30.7899C18.5261 30.917 17.683 30.6386 17.0898 30.0408Z" fill="url(#paint0_linear)"/>
<path d="M25.9452 20.414L30.3166 11.9444L25.9452 20.414Z" fill="url(#paint1_linear)"/>
<path d="M21.6059 6.46407L7.76839 8.40871L21.6059 6.46407Z" fill="url(#paint2_linear)"/>
<path d="M9.16662 22.0854L16.3345 29.3015L9.16662 22.0854Z" fill="url(#paint3_linear)"/>
<path d="M9.63269 26.7783C9.78137 28.2872 10.7733 29.5811 12.1919 30.1164C13.6104 30.6518 15.2098 30.3359 16.3184 29.3015L9.16662 22.0854L9.63269 26.7783Z" fill="url(#paint4_linear)"/>
<path d="M13.4255 1.85158C12.1283 1.11631 10.5291 1.16663 9.28071 1.98201C8.03228 2.79738 7.34339 4.24142 7.49518 5.72478L7.7684 8.40871L21.6059 6.46407L13.4255 1.85158Z" fill="url(#paint5_linear)"/>
<path d="M29.6416 17.0069C31.0602 15.7041 31.3443 13.5733 30.3166 11.9444L25.9452 20.4301L29.6416 17.0069Z" fill="url(#paint6_linear)"/>
<path d="M28.9183 10.5944L21.6059 6.46407L7.76839 8.40871L9.1666 22.0855L16.3344 29.2855L25.9773 20.4301L30.3487 11.9444C29.9983 11.377 29.5051 10.9114 28.9183 10.5944Z" fill="url(#paint7_linear)"/>
<path opacity="0.36" d="M26.4112 12.732C26.2184 12.732 26.1059 12.732 26.1059 12.4748V11.832C26.1059 11.7195 25.9291 11.6391 25.6077 11.6391C25.2862 11.6391 25.1255 11.6391 25.1255 11.832V12.748H23.5184C23.3416 12.748 23.2773 12.748 23.2773 12.6034V12.4748H24.4987C24.6755 12.4748 24.8202 12.4748 24.8202 12.3302V12.1695H23.5184C23.3416 12.1695 23.2773 12.1695 23.2773 12.057V11.9445H24.5952C24.7559 11.9445 24.9487 11.9445 24.9487 11.832V11.6391H21.1559C21.076 11.6391 21.0113 11.5743 21.0113 11.4945C21.0113 11.398 20.8345 11.3016 20.5452 11.3016C20.2559 11.3016 20.0148 11.3016 20.0148 11.4945C20.0148 11.5743 19.9501 11.6391 19.8702 11.6391H18.6809C18.601 11.6391 18.5363 11.5743 18.5363 11.4945C18.5363 11.398 18.3595 11.3016 18.0702 11.3016C17.7809 11.3016 17.5398 11.3016 17.5398 11.4945C17.5398 11.5743 17.4751 11.6391 17.3952 11.6391H13.8916C13.7148 11.6391 13.6184 11.6391 13.6184 11.832V12.8927C13.6184 12.9891 13.7309 13.0855 14.0202 13.0855H16.0613C16.222 13.0855 16.3988 12.9891 16.3988 12.8927V12.748H14.8398C14.6952 12.748 14.6148 12.748 14.6148 12.5873V12.4748H15.8202C15.9648 12.4748 16.1577 12.4748 16.1577 12.3141V12.1695H14.8398C14.7113 12.1695 14.6148 12.1695 14.6148 12.073V11.9927H17.0898C17.3309 11.9927 17.5398 12.073 17.5398 12.3302V12.8927C17.5398 12.9891 17.7809 13.0855 18.0541 13.0855C18.3273 13.0855 18.5363 12.9891 18.5363 12.8927V12.3302C18.5444 12.232 18.5914 12.1411 18.6669 12.0778C18.7423 12.0144 18.8399 11.9838 18.938 11.9927H19.613C19.8541 11.9927 20.0148 12.1052 20.0148 12.3141V12.8927C20.0148 12.9891 20.1916 13.0855 20.4809 13.0855C20.7702 13.0855 21.0113 13.0052 21.0113 12.8927V12.3141C21.0457 12.1409 21.1891 12.0105 21.3648 11.9927H21.8791C21.9729 11.9883 22.0646 12.0214 22.1339 12.0848C22.2033 12.1481 22.2446 12.2364 22.2488 12.3302V12.8927C22.2488 12.9891 22.3291 13.0855 22.5541 13.0855H27.3112C27.5362 13.0855 27.697 13.0052 27.697 12.8927V12.732H26.4112ZM12.847 11.6391H12.0756C11.898 11.6236 11.7241 11.6955 11.6095 11.832L11.0309 12.6837L10.4363 11.832C10.2821 11.6951 10.0795 11.6256 9.87377 11.6391H9.26306L10.3238 12.8927C10.5192 13.0341 10.7581 13.1024 10.9988 13.0855C11.3684 13.0855 11.6095 13.0855 11.7059 12.8927C11.8023 12.6998 12.3648 12.1052 12.3648 12.1052V12.8927C12.3648 12.9891 12.5256 13.0855 12.8309 13.0855C13.1363 13.0855 13.3613 12.9891 13.3613 12.8927V11.832C13.3613 11.7355 13.1684 11.6391 12.847 11.6391Z" fill="#214182"/>
<path opacity="0.36" fill-rule="evenodd" clip-rule="evenodd" d="M21.2363 14.5641C21.151 14.611 21.0888 14.6911 21.0645 14.7854C21.0401 14.8797 21.0558 14.9799 21.1077 15.0623L22.8273 18.0516L21.8309 19.7712C21.7334 19.9537 21.7972 20.1806 21.9755 20.2855C22.1532 20.3815 22.3751 20.3171 22.4738 20.1408L25.3988 15.0623C25.4507 14.9799 25.4663 14.8797 25.442 14.7854C25.4176 14.6911 25.3555 14.611 25.2702 14.5641C25.0918 14.4637 24.866 14.5201 24.7559 14.6926L23.2452 17.3926L21.7345 14.773C21.6304 14.6026 21.4098 14.5457 21.2363 14.6444" fill="#214182"/>
<path opacity="0.36" fill-rule="evenodd" clip-rule="evenodd" d="M13.6506 15.239C13.0367 15.2325 12.4799 15.5982 12.2419 16.1642C12.004 16.7301 12.1322 17.3838 12.5663 17.8179C13.0005 18.252 13.6541 18.3802 14.2201 18.1423C14.786 17.9044 15.1517 17.3476 15.1452 16.7337C15.1452 15.9082 14.476 15.239 13.6506 15.239ZM11.8023 14.548C11.6071 14.548 11.4488 14.7063 11.4488 14.9015V19.964C11.4175 20.1114 11.4788 20.263 11.6037 20.3472C11.7286 20.4314 11.8921 20.4314 12.017 20.3472C12.1419 20.263 12.2032 20.1114 12.172 19.964V18.3569C12.5416 18.7491 13.064 18.9604 13.6023 18.9355C14.2023 18.9616 14.7856 18.7341 15.2095 18.3087C15.6575 17.8978 15.899 17.3086 15.8684 16.7015C15.8968 16.0948 15.6556 15.5066 15.2095 15.0944C14.7813 14.6756 14.201 14.4492 13.6023 14.4676C13.0644 14.4449 12.5428 14.6558 12.172 15.0462V14.9015C12.1721 14.8049 12.1326 14.7125 12.0628 14.6457C11.993 14.5789 11.8989 14.5436 11.8023 14.548Z" fill="#214182"/>
<path opacity="0.36" fill-rule="evenodd" clip-rule="evenodd" d="M18.472 15.239C19.0859 15.2325 19.6427 15.5982 19.8806 16.1642C20.1185 16.7301 19.9903 17.3838 19.5562 17.8179C19.1221 18.252 18.4684 18.3803 17.9025 18.1423C17.3365 17.9044 16.9708 17.3476 16.9773 16.7337C16.9773 15.9082 17.6465 15.239 18.472 15.239ZM20.3202 14.548C20.5155 14.548 20.6737 14.7063 20.6737 14.9015V18.614C20.705 18.7614 20.6437 18.913 20.5188 18.9972C20.3939 19.0814 20.2304 19.0814 20.1055 18.9972C19.9806 18.913 19.9193 18.7614 19.9505 18.614V18.2765C19.5809 18.6687 19.0585 18.88 18.5202 18.8551C17.9202 18.8812 17.3369 18.6537 16.913 18.2283C16.465 17.8175 16.2235 17.2283 16.2541 16.6212C16.2257 16.0145 16.4669 15.4262 16.913 15.014C17.3412 14.5952 17.9215 14.3689 18.5202 14.3873C19.0585 14.3624 19.5809 14.5737 19.9505 14.9658V14.9015C19.9504 14.8049 19.9899 14.7125 20.0597 14.6457C20.1295 14.5789 20.2237 14.5436 20.3202 14.548Z" fill="#214182"/>
<path d="M26.2666 12.5712C26.0737 12.5712 25.9612 12.5712 25.9612 12.3301V11.6873C25.9612 11.5908 25.7684 11.4944 25.463 11.4944C25.1577 11.4944 24.9648 11.4944 24.9648 11.6873V12.5712H23.3577C23.197 12.5712 23.1327 12.5712 23.1327 12.4105V12.3301H24.338C24.5309 12.3301 24.6755 12.3301 24.6755 12.1855V12.0408H23.3577C23.197 12.0408 23.1327 12.0408 23.1327 11.9123V11.8158H24.4345C24.6113 11.8158 24.788 11.8158 24.788 11.6873V11.4944H20.9952C20.8666 11.4944 20.8666 11.3498 20.8666 11.3498C20.8666 11.3498 20.6898 11.173 20.4005 11.173C20.1113 11.173 19.8702 11.173 19.8702 11.3498C19.8702 11.4297 19.8054 11.4944 19.7255 11.4944H18.5363C18.4564 11.4944 18.3916 11.4297 18.3916 11.3498C18.3916 11.3498 18.2148 11.173 17.9255 11.173C17.6363 11.173 17.3952 11.173 17.3952 11.3498C17.3952 11.4297 17.3304 11.4944 17.2506 11.4944H13.7309C13.5541 11.4944 13.4577 11.4944 13.4577 11.6873V12.7641C13.4577 12.7641 13.5863 12.9408 13.8756 12.9408H15.8363C15.9809 12.9408 16.1738 12.8605 16.1738 12.748V12.5712H14.6952C14.5506 12.5712 14.4541 12.5712 14.4541 12.4587V12.3301H15.6756C15.8202 12.3301 16.0131 12.3301 16.0131 12.1855V12.0408H14.6952C14.5506 12.0408 14.4541 12.0408 14.4541 11.9444V11.8641H16.9291C17.1863 11.8641 17.3952 11.8641 17.3952 12.1855V12.7641C17.3952 12.7641 17.6202 12.9408 17.8934 12.9408C18.1666 12.9408 18.3916 12.8444 18.3916 12.7641V12.1855C18.3916 12.0408 18.5041 11.8641 18.7934 11.8641H19.4684C19.6934 11.8641 19.8702 11.9605 19.8702 12.1694V12.7641C19.8702 12.7641 20.047 12.9408 20.3363 12.9408C20.6255 12.9408 20.8666 12.9408 20.8666 12.7641V12.1694C20.8971 11.9966 21.0448 11.869 21.2202 11.8641H21.7345C21.8267 11.8552 21.9185 11.8845 21.9884 11.9453C22.0583 12.0061 22.1001 12.0929 22.1041 12.1855V12.7641C22.1041 12.7641 22.1845 12.9408 22.3934 12.9408H27.1184C27.3273 12.9408 27.5041 12.8605 27.5041 12.7641V12.5712H26.2666ZM12.6863 11.4944H11.9309C11.7534 11.4789 11.5795 11.5508 11.4648 11.6873L10.8702 12.5712L10.2916 11.7194C10.1325 11.58 9.924 11.5105 9.71307 11.5266H9.11842L10.1631 12.7962C10.3691 12.9264 10.6109 12.9883 10.8541 12.973C11.1038 13.0071 11.357 12.9438 11.5613 12.7962L12.2202 11.9926V12.7962C12.2202 12.7962 12.3648 12.973 12.6863 12.973C13.0077 12.973 13.2006 12.8766 13.2006 12.7962V11.6873C13.2006 11.5908 13.0238 11.4944 12.6863 11.4944Z" fill="white"/>
<path fill-rule="evenodd" clip-rule="evenodd" d="M21.0916 14.4194C20.9132 14.5243 20.8494 14.7512 20.9469 14.9337L22.6666 17.923L21.6862 19.6426C21.6343 19.725 21.6187 19.8252 21.643 19.9195C21.6673 20.0138 21.7295 20.0939 21.8148 20.1408C21.9932 20.2412 22.2189 20.1848 22.3291 20.0123L25.2541 14.9337C25.3516 14.7512 25.2878 14.5243 25.1094 14.4194C24.9317 14.3234 24.7099 14.3878 24.6112 14.5641L23.1005 17.1676L21.5898 14.5641C21.4911 14.3878 21.2693 14.3234 21.0916 14.4194Z" fill="white"/>
<path fill-rule="evenodd" clip-rule="evenodd" d="M13.5059 15.0944C12.8935 15.0879 12.3377 15.4518 12.0988 16.0158C11.8599 16.5797 11.9851 17.2321 12.4159 17.6675C12.8467 18.1029 13.4977 18.2352 14.0642 18.0023C14.6307 17.7694 15.0005 17.2176 15.0005 16.6051C15.0006 15.777 14.334 15.1032 13.5059 15.0944ZM11.6577 14.4033C11.5516 14.3894 11.4447 14.4221 11.3645 14.493C11.2844 14.5638 11.2389 14.666 11.2398 14.773V19.8194C11.2398 20.0235 11.4053 20.189 11.6095 20.189C11.8136 20.189 11.9791 20.0235 11.9791 19.8194V18.2123C12.3487 18.6044 12.8711 18.8157 13.4095 18.7908C14.0061 18.8153 14.5868 18.5947 15.0166 18.1801C15.4479 17.759 15.6814 17.1754 15.6595 16.573C15.6901 15.9659 15.4485 15.3767 15.0005 14.9658C14.5718 14.5496 13.9904 14.3287 13.3934 14.3551C12.8551 14.3302 12.3327 14.5415 11.963 14.9337V14.773C11.9658 14.5915 11.8364 14.4349 11.6577 14.4033Z" fill="white"/>
<path fill-rule="evenodd" clip-rule="evenodd" d="M18.3273 15.0944C19.1617 15.0944 19.838 15.7708 19.838 16.6051C19.838 17.4395 19.1617 18.1158 18.3273 18.1158C17.493 18.1158 16.8166 17.4395 16.8166 16.6051C16.8166 15.7708 17.493 15.0944 18.3273 15.0944ZM20.1595 14.4033C20.2575 14.4033 20.3515 14.4423 20.4208 14.5116C20.4902 14.5809 20.5291 14.6749 20.5291 14.773V18.4855C20.5292 18.5821 20.4897 18.6746 20.4199 18.7413C20.3501 18.8081 20.256 18.8434 20.1595 18.839C19.9614 18.8392 19.7984 18.6833 19.7898 18.4855V18.148C19.4202 18.5401 18.8978 18.7514 18.3595 18.7265C17.7628 18.7511 17.1821 18.5304 16.7523 18.1158C16.321 17.6947 16.0875 17.1111 16.1095 16.5087C16.0788 15.9016 16.3204 15.3124 16.7684 14.9016C17.1971 14.4854 17.7786 14.2644 18.3755 14.2908C18.9146 14.2615 19.4388 14.4735 19.8059 14.8694V14.773C19.8057 14.575 19.9616 14.412 20.1595 14.4033Z" fill="white"/>
<defs>
<linearGradient id="paint0_linear" x1="0.343869" y1="18.8188" x2="32.4563" y2="17.2988" gradientUnits="userSpaceOnUse">
<stop stop-color="#F8F252"/>
<stop offset="0.26" stop-color="#E4F464"/>
<stop offset="0.78" stop-color="#B1F993"/>
<stop offset="1" stop-color="#99FBA9"/>
</linearGradient>
<linearGradient id="paint1_linear" x1="26.1058" y1="4.0212" x2="33.6091" y2="16.0289" gradientUnits="userSpaceOnUse">
<stop stop-color="#10C49D"/>
<stop offset="1" stop-color="#01BEC8"/>
</linearGradient>
<linearGradient id="paint2_linear" x1="14.7916" y1="7.43973" x2="17.5795" y2="11.9013" gradientUnits="userSpaceOnUse">
<stop stop-color="#10C49D"/>
<stop offset="1" stop-color="#01BEC8"/>
</linearGradient>
<linearGradient id="paint3_linear" x1="5.29758" y1="13.5998" x2="14.7122" y2="28.6664" gradientUnits="userSpaceOnUse">
<stop stop-color="#10C49D"/>
<stop offset="1" stop-color="#01BEC8"/>
</linearGradient>
<linearGradient id="paint4_linear" x1="9.16662" y1="26.2319" x2="16.3345" y2="26.2319" gradientUnits="userSpaceOnUse">
<stop stop-color="#37BFEE"/>
<stop offset="1" stop-color="#38C1E8"/>
</linearGradient>
<linearGradient id="paint5_linear" x1="13.4416" y1="4.64993" x2="14.1764" y2="6.69752" gradientUnits="userSpaceOnUse">
<stop stop-color="#4ACEA8"/>
<stop offset="1" stop-color="#46CBB6"/>
</linearGradient>
<linearGradient id="paint6_linear" x1="28.1768" y1="18.164" x2="29.8398" y2="15.5786" gradientUnits="userSpaceOnUse">
<stop stop-color="#40C7CA"/>
<stop offset="1" stop-color="#42C8C5"/>
</linearGradient>
<linearGradient id="paint7_linear" x1="14.2204" y1="8.023" x2="23.6305" y2="23.0567" gradientUnits="userSpaceOnUse">
<stop stop-color="#10C49D"/>
<stop offset="1" stop-color="#01BEC8"/>
</linearGradient>
</defs>
</svg>
