<svg xmlns="http://www.w3.org/2000/svg" viewBox="0 0 130.15 45.49"><defs><style>.cls-1{fill:url(#linear-gradient);}.cls-2{fill:#fff;}.cls-3{fill:url(#linear-gradient-2);}.cls-4{fill:url(#linear-gradient-3);}.cls-5{fill:url(#linear-gradient-4);}</style><linearGradient id="linear-gradient" x1="15.31" y1="24.13" x2="4.19" y2="19.3" gradientUnits="userSpaceOnUse"><stop offset="0.13" stop-color="#31d57e"/><stop offset="0.33" stop-color="#00bcb4"/><stop offset="0.64" stop-color="#1896d5"/><stop offset="0.82" stop-color="#287cec"/></linearGradient><linearGradient id="linear-gradient-2" x1="-4.98" y1="28.73" x2="14.82" y2="28.13" gradientUnits="userSpaceOnUse"><stop offset="0" stop-color="#0a4877"/><stop offset="0.76" stop-color="#fff"/></linearGradient><linearGradient id="linear-gradient-3" x1="17.87" y1="15.56" x2="1.62" y2="15.52" gradientUnits="userSpaceOnUse"><stop offset="0" stop-color="#0a4877"/><stop offset="0.02" stop-color="#144f7c"/><stop offset="0.19" stop-color="#5a84a4"/><stop offset="0.35" stop-color="#95b0c4"/><stop offset="0.49" stop-color="#c3d2de"/><stop offset="0.62" stop-color="#e4ebf0"/><stop offset="0.73" stop-color="#f8fafb"/><stop offset="0.8" stop-color="#fff"/></linearGradient><linearGradient id="linear-gradient-4" x1="24.79" y1="21.88" x2="14.32" y2="21.88" gradientUnits="userSpaceOnUse"><stop offset="0.03" stop-color="#0a4877"/><stop offset="1" stop-color="#fff"/></linearGradient></defs><title>logo_white</title><g id="Layer_2" data-name="Layer 2"><g id="Layer_1-2" data-name="Layer 1"><path class="cls-1" d="M10.11,18.2a3.67,3.67,0,1,1,0,7.34h0a3.67,3.67,0,1,1,0-7.34Z"/><path id="_Compound_Path_" data-name="&lt;Compound Path&gt;" class="cls-2" d="M108.63,6.61c-1.21,0-1.92-.3-1.92-1.11v-3c0-.46-1.18-.87-3.16-.87s-3.13.07-3.13.87V6.74H90.06c-1,0-1.51-.1-1.51-.7v-.6h7.73c1.13,0,2.08,0,2.08-.65V4.1h-8.3c-1,0-1.51-.1-1.51-.57V3.07h8.33c1.07,0,2.24-.26,2.24-.55V1.65H75.31c-.9,0-.9-.65-.9-.65V.86c0-.41-1.12-.86-2.93-.86s-3.37.32-3.37.86V1l0,0s0,.65-.91.65H59.65c-.89,0-.89-.65-.89-.65l0,0V.86C58.72.45,57.61,0,55.8,0s-3.35.32-3.35.86V1s0,.65-.91.65H29.28c-1.13,0-1.73.29-1.73.87V7.38c0,.43.75.86,2.58.86H42.54c1,0,2.18-.42,2.18-.87V6.74H35.3c-.87,0-1.46-.14-1.46-.73V5.44h7.69c.92,0,2.13,0,2.13-.67V4.1H35.35c-.87,0-1.51,0-1.51-.43V3.28H49.52c1.6,0,2.93.36,2.93,1.51V7.38c0,.4,1.46.86,3.21.86s3.06-.44,3.06-.86V4.79c0-.66.8-1.51,2.55-1.51h4.32c1.44,0,2.52.47,2.52,1.45V7.38c0,.4,1.12.86,2.93.86s3.37-.33,3.37-.86V4.73c0-.65,1.18-1.45,2.25-1.45h3.25c1.13,0,2.34.53,2.34,1.51V7.38c0,.4.54.86,1.91.86H114c1.36,0,2.48-.39,2.48-.86V6.61ZM25.92,2.8s.59-1.1-3.31-1.15H17.8a4.38,4.38,0,0,0-3,.87L11.17,6.39,7.42,2.52a6.14,6.14,0,0,0-3.61-.87H0S6.35,7.1,6.69,7.38A8.71,8.71,0,0,0,11,8.24c2.32,0,3.85-.3,4.49-.86l4.15-3.62V7.38c0,.41,1,.86,3,.86s3.31-.43,3.31-.86V2.52c0-.45-1.16-.87-3.31-.87"/><rect class="cls-2" x="24.74" y="13.07" width="3.97" height="17.61" rx="1.12" ry="1.12"/><rect class="cls-2" x="59.41" y="13.07" width="3.97" height="17.61" rx="1.12" ry="1.12"/><path class="cls-2" d="M87,13.07H70.46a1.13,1.13,0,0,0-1.13,1.12v1.73A1.13,1.13,0,0,0,70.46,17h6.29V29.56a1.12,1.12,0,0,0,1.12,1.12H79.6a1.12,1.12,0,0,0,1.12-1.12V17H87a1.12,1.12,0,0,0,1.12-1.12V14.19A1.12,1.12,0,0,0,87,13.07Z"/><path class="cls-2" d="M129,26.71H116.49V14.19a1.12,1.12,0,0,0-1.12-1.12h-1.73a1.12,1.12,0,0,0-1.12,1.12V29.56a1.12,1.12,0,0,0,1.12,1.12H129a1.13,1.13,0,0,0,1.13-1.12V27.83A1.13,1.13,0,0,0,129,26.71Z"/><path class="cls-2" d="M106.46,28.76l-8.09-15a1.3,1.3,0,0,0-2.29,0L88,28.76a1.3,1.3,0,0,0,1.15,1.92H90.8a1.14,1.14,0,0,0,1-.59L97.22,20l5.44,10.1a1.14,1.14,0,0,0,1,.59h1.66A1.3,1.3,0,0,0,106.46,28.76Z"/><path class="cls-2" d="M51,22.69v6.87a1.13,1.13,0,0,1-1.13,1.13H43.48a8.82,8.82,0,0,1,0-17.63h1.2l8.77,0-3,2.18-1.9,1.41h0a1.91,1.91,0,0,1-.94.34H43.48a4.83,4.83,0,0,0-.4,9.65v0H47v-4a1.14,1.14,0,0,1,1.13-1.13h1.72A1.13,1.13,0,0,1,51,22.69Z"/><path class="cls-3" d="M10,26.69H6.9a3.55,3.55,0,0,0-2,.62L0,30.67H6.22l6.4-4.75A4.7,4.7,0,0,1,10,26.69Z"/><path class="cls-4" d="M0,13.08,4.9,16.51a3.49,3.49,0,0,0,2,.64H10a4.76,4.76,0,0,1,2.71.85L6.78,13.08Z"/><path class="cls-5" d="M10.13,13.08H6.78l6,4.92a5.11,5.11,0,0,1,.63.52l.06.05-.06-.05a4.75,4.75,0,0,1,1.43,3.4h0a4.76,4.76,0,0,1-1.7,3.65l.12-.09-.12.09a5.74,5.74,0,0,1-.47.35l-6.4,4.75h3.91a8.8,8.8,0,0,0,8.79-8.79h0A8.8,8.8,0,0,0,10.13,13.08Z"/><path class="cls-2" d="M4.12,42.68,1.06,38.61v4.07H0V34.54l1.06-.16V38.3l3-3.84h1.3l-3.19,4,3.3,4.24Z"/><path class="cls-2" d="M11.8,42.68h-1v-3a1.38,1.38,0,0,0-.34-1,1.21,1.21,0,0,0-.91-.35,1.32,1.32,0,0,0-1,.4,1.48,1.48,0,0,0-.39,1.07v3h-1V34.32l1-.16v3.93a2,2,0,0,1,.7-.55,2.28,2.28,0,0,1,.91-.19,2.16,2.16,0,0,1,.81.15,1.83,1.83,0,0,1,.64.44,1.91,1.91,0,0,1,.42.69,2.54,2.54,0,0,1,.15.9Z"/><path class="cls-2" d="M13.51,40.09a2.7,2.7,0,0,1,.81-1.93,2.82,2.82,0,0,1,.89-.59,2.62,2.62,0,0,1,1.09-.22,2.85,2.85,0,0,1,1,.17l.31-.05.27-.06a.23.23,0,0,0,.14-.19.4.4,0,0,0-.05-.29.47.47,0,0,1-.06-.09l-.08-.1.61-.27.13.13.1.14a.75.75,0,0,1,.1.63.74.74,0,0,1-.38.5,1.4,1.4,0,0,1-.29.09,2.76,2.76,0,0,1,.76.93,2.71,2.71,0,0,1,.27,1.2,2.55,2.55,0,0,1-.22,1.06,2.73,2.73,0,0,1-.59.87,2.65,2.65,0,0,1-.88.58,2.91,2.91,0,0,1-1.1.21,2.74,2.74,0,0,1-1.08-.21,2.79,2.79,0,0,1-.89-.58,2.94,2.94,0,0,1-.6-.87A2.72,2.72,0,0,1,13.51,40.09Zm4.6,0a1.79,1.79,0,0,0-.15-.72,1.88,1.88,0,0,0-.38-.58,2.11,2.11,0,0,0-.58-.39,1.82,1.82,0,0,0-.7-.14,1.89,1.89,0,0,0-.72.14,1.92,1.92,0,0,0-.57.39,1.85,1.85,0,0,0-.37.58,2,2,0,0,0-.14.72,1.94,1.94,0,0,0,.14.73,1.69,1.69,0,0,0,.37.59,1.92,1.92,0,0,0,.57.39,1.89,1.89,0,0,0,.72.14,1.82,1.82,0,0,0,.7-.14,2.11,2.11,0,0,0,.58-.39A1.71,1.71,0,0,0,18,40.8,1.77,1.77,0,0,0,18.11,40.07ZM16.2,36.94a1.54,1.54,0,0,1,0-.45.59.59,0,0,1,.23-.34A1.21,1.21,0,0,1,16.7,36a.28.28,0,0,0,.14-.24.29.29,0,0,0-.13-.24.56.56,0,0,0-.3-.07.54.54,0,0,0-.34.12.44.44,0,0,0-.16.37l-.56-.11a.81.81,0,0,1,.31-.67,1.19,1.19,0,0,1,.77-.26,1.37,1.37,0,0,1,.71.19.73.73,0,0,1,.31.64.67.67,0,0,1-.11.39,1.48,1.48,0,0,1-.25.25l-.24.2a.27.27,0,0,0-.09.24v.15Z"/><path class="cls-2" d="M20.83,36.15a.55.55,0,0,1,.16-.4.57.57,0,0,1,.42-.16.56.56,0,0,1,.41.16.55.55,0,0,1,.16.4.54.54,0,0,1-.16.41.57.57,0,0,1-.41.17.57.57,0,0,1-.42-.17A.54.54,0,0,1,20.83,36.15Zm.08,1.41,1-.17v5.29h-1Z"/><path class="cls-2" d="M31.71,42.68h-1v-3a1.47,1.47,0,0,0-.34-1,1.21,1.21,0,0,0-.92-.36,1.33,1.33,0,0,0-1,.41,1.53,1.53,0,0,0-.38,1.08v3h-1V37.55L28,37.4v.69a2.07,2.07,0,0,1,.72-.55,2.33,2.33,0,0,1,.92-.19,1.93,1.93,0,0,1,1.47.58,2.17,2.17,0,0,1,.56,1.6Z"/><path class="cls-2" d="M38.47,38.1,37.6,38a2.27,2.27,0,0,1,.56.72,2.16,2.16,0,0,1,.2.91,2.08,2.08,0,0,1-.31,1.12,2.33,2.33,0,0,1-.84.81,2,2,0,0,1,.72.73,1.94,1.94,0,0,1,.27,1,2.14,2.14,0,0,1-.17.84,2.2,2.2,0,0,1-.48.68,2.38,2.38,0,0,1-1.64.63A2.32,2.32,0,0,1,34.42,45a2.23,2.23,0,0,1-.77-1.31l.85-.39a1.51,1.51,0,0,0,.46,1,1.31,1.31,0,0,0,.95.36,1.38,1.38,0,0,0,.55-.1,1.35,1.35,0,0,0,.43-.29,1.2,1.2,0,0,0,.28-.41,1.36,1.36,0,0,0,0-1,1.37,1.37,0,0,0-.29-.42,1.62,1.62,0,0,0-.44-.27,1.32,1.32,0,0,0-.53-.1,1.53,1.53,0,0,0-1.26.64l-.41-.7a3.19,3.19,0,0,1,.4-.33,2.21,2.21,0,0,1-.86-.8,2.16,2.16,0,0,1-.32-1.15,2.2,2.2,0,0,1,.18-.88,2.42,2.42,0,0,1,.51-.72,2.54,2.54,0,0,1,.79-.5,3,3,0,0,1,1-.21l2.68-.11Zm-1,1.58a1.41,1.41,0,0,0-.12-.59,1.27,1.27,0,0,0-.32-.47,1.52,1.52,0,0,0-.48-.31,1.44,1.44,0,0,0-.59-.11,1.52,1.52,0,0,0-.6.11,1.46,1.46,0,0,0-.49.31,1.49,1.49,0,0,0-.32,1.64,1.47,1.47,0,0,0,.32.46,1.69,1.69,0,0,0,.48.3,1.74,1.74,0,0,0,.61.11A1.63,1.63,0,0,0,36.5,41a1.69,1.69,0,0,0,.48-.3,1.32,1.32,0,0,0,.32-.46A1.4,1.4,0,0,0,37.42,39.68Z"/><path class="cls-2" d="M44.92,37.39v5.3H44v-.61a2.1,2.1,0,0,1-1.61.72,1.91,1.91,0,0,1-1.46-.58,2.18,2.18,0,0,1-.55-1.59V37.55l1-.16v3.13a1.42,1.42,0,0,0,.33,1,1.16,1.16,0,0,0,.9.36,1.29,1.29,0,0,0,1-.4,1.52,1.52,0,0,0,.38-1.07V37.55Z"/><path class="cls-2" d="M46.73,40.09A2.77,2.77,0,0,1,47,39a2.59,2.59,0,0,1,.59-.86,2.78,2.78,0,0,1,.88-.59,2.84,2.84,0,0,1,2.19,0,2.71,2.71,0,0,1,.89.59,2.7,2.7,0,0,1,.81,1.93,2.55,2.55,0,0,1-.22,1.06,2.73,2.73,0,0,1-.59.87,2.69,2.69,0,0,1-.89.58,2.82,2.82,0,0,1-1.09.21,2.74,2.74,0,0,1-1.08-.21,2.69,2.69,0,0,1-.89-.58,2.61,2.61,0,0,1-.6-.87A2.72,2.72,0,0,1,46.73,40.09Zm4.59,0a1.78,1.78,0,0,0-.14-.72,1.88,1.88,0,0,0-.38-.58,2.11,2.11,0,0,0-.58-.39,1.82,1.82,0,0,0-.7-.14,1.89,1.89,0,0,0-.72.14,1.92,1.92,0,0,0-.57.39,1.88,1.88,0,0,0-.38.58,2,2,0,0,0-.13.72,1.93,1.93,0,0,0,.13.73,1.71,1.71,0,0,0,.38.59,1.92,1.92,0,0,0,.57.39,1.89,1.89,0,0,0,.72.14,1.82,1.82,0,0,0,.7-.14,2.11,2.11,0,0,0,.58-.39,1.71,1.71,0,0,0,.38-.59A1.76,1.76,0,0,0,51.32,40.07ZM50.57,37l-1.07-.82-1,.82-.39-.43,1.41-1.27L51,36.52Zm-2-2.41.33-.66,2.11,1-.27.6Z"/><path class="cls-2" d="M58.71,42.68h-1v-3a1.42,1.42,0,0,0-.34-1,1.18,1.18,0,0,0-.91-.36,1.33,1.33,0,0,0-1,.41,1.49,1.49,0,0,0-.39,1.08v3h-1V37.55L55,37.4v.69a2.16,2.16,0,0,1,.72-.55,2.34,2.34,0,0,1,.93-.19,2,2,0,0,1,1.47.58,2.21,2.21,0,0,1,.56,1.6Z"/><path class="cls-2" d="M63.38,40.07a2.41,2.41,0,0,1,.21-1,2.79,2.79,0,0,1,.61-.87,2.71,2.71,0,0,1,.89-.59,2.39,2.39,0,0,1,1.06-.21,3,3,0,0,1,1.38.33l-.17.9a2.54,2.54,0,0,0-1.18-.34,1.89,1.89,0,0,0-.72.14,1.92,1.92,0,0,0-.57.39,1.74,1.74,0,0,0-.39.58,2.09,2.09,0,0,0,0,1.45,1.74,1.74,0,0,0,.39.58,1.92,1.92,0,0,0,.57.39,1.72,1.72,0,0,0,.72.15,2.53,2.53,0,0,0,1.24-.38l.15.93a3.22,3.22,0,0,1-1.42.34,2.55,2.55,0,0,1-1.06-.22A2.71,2.71,0,0,1,64.2,42a2.61,2.61,0,0,1-.6-.87A2.52,2.52,0,0,1,63.38,40.07Z"/><path class="cls-2" d="M73.82,37.39v5.3h-.94v-.61a1.92,1.92,0,0,1-.7.53,2.12,2.12,0,0,1-.91.19,1.88,1.88,0,0,1-1.45-.58,2.18,2.18,0,0,1-.55-1.59V37.55l1-.16v3.13a1.38,1.38,0,0,0,.34,1,1.15,1.15,0,0,0,.89.36,1.31,1.31,0,0,0,1-.4,1.52,1.52,0,0,0,.37-1.07V37.55Z"/><path class="cls-2" d="M75.63,40.09a2.7,2.7,0,0,1,.81-1.93,2.79,2.79,0,0,1,2-.81,2.84,2.84,0,0,1,2,.81A2.59,2.59,0,0,1,81,39a2.77,2.77,0,0,1,.22,1.07A2.74,2.74,0,0,1,80.4,42a2.69,2.69,0,0,1-.89.58,2.87,2.87,0,0,1-1.1.21,2.81,2.81,0,0,1-1.08-.21,2.75,2.75,0,0,1-.88-.58,2.61,2.61,0,0,1-.6-.87A2.55,2.55,0,0,1,75.63,40.09Zm4.59,0a2,2,0,0,0-.14-.72,1.74,1.74,0,0,0-.39-.58,1.92,1.92,0,0,0-.57-.39,1.87,1.87,0,0,0-.71-.14,1.83,1.83,0,0,0-.71.14,1.92,1.92,0,0,0-.57.39,1.88,1.88,0,0,0-.38.58,2,2,0,0,0-.13.72,1.93,1.93,0,0,0,.13.73,1.71,1.71,0,0,0,.38.59,1.92,1.92,0,0,0,.57.39,1.83,1.83,0,0,0,.71.14,1.87,1.87,0,0,0,.71-.14,1.92,1.92,0,0,0,.57-.39,1.6,1.6,0,0,0,.39-.59A1.94,1.94,0,0,0,80.22,40.07ZM79.47,37l-1.07-.82-1,.82L77,36.52l1.41-1.27,1.46,1.27Zm-1.63,7.36a.55.55,0,0,1,.16-.4.6.6,0,0,1,.41-.16.58.58,0,0,1,.41.16.56.56,0,0,1,.17.4.53.53,0,0,1-.17.41.55.55,0,0,1-.41.17.57.57,0,0,1-.41-.17A.53.53,0,0,1,77.84,44.31Z"/><path class="cls-2" d="M82.58,40.07a2.41,2.41,0,0,1,.21-1,2.89,2.89,0,0,1,1.49-1.46,2.47,2.47,0,0,1,1.07-.21,3,3,0,0,1,1.38.33l-.17.9a2.54,2.54,0,0,0-1.18-.34,1.89,1.89,0,0,0-.72.14,2.11,2.11,0,0,0-.58.39,1.88,1.88,0,0,0-.38.58,2.09,2.09,0,0,0,0,1.45,1.88,1.88,0,0,0,.38.58,2.11,2.11,0,0,0,.58.39,1.72,1.72,0,0,0,.72.15,2.53,2.53,0,0,0,1.24-.38l.15.93a3.22,3.22,0,0,1-1.42.34,2.63,2.63,0,0,1-1.07-.22A2.78,2.78,0,0,1,83.4,42a2.61,2.61,0,0,1-.6-.87A2.52,2.52,0,0,1,82.58,40.07Z"/><path class="cls-2" d="M91.29,41.44a4.08,4.08,0,0,0,.77.4,2,2,0,0,0,.72.14.87.87,0,0,0,.6-.2.71.71,0,0,0,.23-.54.64.64,0,0,0-.19-.46,1.69,1.69,0,0,0-.69-.34l-.23-.07a2,2,0,0,1-.91-.61,1.49,1.49,0,0,1-.32-.94,1.43,1.43,0,0,1,.12-.58,1.54,1.54,0,0,1,.33-.47,1.79,1.79,0,0,1,.52-.31,2,2,0,0,1,.65-.11,2.69,2.69,0,0,1,.73.11,3.47,3.47,0,0,1,.73.29l-.17.85a2.41,2.41,0,0,0-.67-.32,2,2,0,0,0-.6-.11.77.77,0,0,0-.54.18.6.6,0,0,0-.2.46.56.56,0,0,0,.17.4,1.78,1.78,0,0,0,.63.34l.21.07a2.32,2.32,0,0,1,1,.63,1.45,1.45,0,0,1,.35,1,1.7,1.7,0,0,1-.13.64,1.6,1.6,0,0,1-.36.49,1.4,1.4,0,0,1-.55.33,2,2,0,0,1-.71.12,2.92,2.92,0,0,1-.86-.14,3,3,0,0,1-.81-.39Z"/><path class="cls-2" d="M96,40.09A2.76,2.76,0,0,1,96.24,39a2.61,2.61,0,0,1,.6-.86,2.67,2.67,0,0,1,.88-.59,2.62,2.62,0,0,1,1.09-.22,2.7,2.7,0,0,1,1.1.22,2.67,2.67,0,0,1,.88.59,2.59,2.59,0,0,1,.81,1.93,2.71,2.71,0,0,1-.21,1.06,2.94,2.94,0,0,1-.6.87,2.65,2.65,0,0,1-.88.58,2.87,2.87,0,0,1-1.1.21,2.74,2.74,0,0,1-1.08-.21,2.79,2.79,0,0,1-.89-.58,2.94,2.94,0,0,1-.6-.87A2.71,2.71,0,0,1,96,40.09Zm4.59,0a2,2,0,0,0-.14-.72,1.82,1.82,0,0,0-1-1,1.82,1.82,0,0,0-.7-.14,1.89,1.89,0,0,0-.72.14,1.92,1.92,0,0,0-.57.39,1.85,1.85,0,0,0-.37.58,2,2,0,0,0-.14.72,1.94,1.94,0,0,0,.14.73,1.69,1.69,0,0,0,.37.59,1.92,1.92,0,0,0,.57.39,1.89,1.89,0,0,0,.72.14,1.82,1.82,0,0,0,.7-.14,2.11,2.11,0,0,0,.58-.39,1.9,1.9,0,0,0,.39-.59A1.94,1.94,0,0,0,100.62,40.07ZM97.27,34.9l2.11-1,.32.68-2.16.94ZM99.86,37l-1.06-.82-1,.82-.38-.43,1.41-1.27,1.45,1.27Z"/><path class="cls-2" d="M108,42.68h-1v-3a1.47,1.47,0,0,0-.34-1,1.22,1.22,0,0,0-.92-.36,1.33,1.33,0,0,0-1,.41,1.49,1.49,0,0,0-.39,1.08v3h-1V37.55l.94-.15v.69a2,2,0,0,1,.71-.55,2.34,2.34,0,0,1,.93-.19,2,2,0,0,1,1.47.58,2.21,2.21,0,0,1,.56,1.6Z"/><path class="cls-2" d="M114.75,38.1l-.86-.07a2.27,2.27,0,0,1,.56.72,2.17,2.17,0,0,1-.11,2,2.33,2.33,0,0,1-.84.81,2.18,2.18,0,0,1,.72.73,1.94,1.94,0,0,1,.26,1,2,2,0,0,1-.17.84,2,2,0,0,1-.47.68,2.59,2.59,0,0,1-.73.46,2.51,2.51,0,0,1-.92.17,2.31,2.31,0,0,1-1.48-.49,2.23,2.23,0,0,1-.77-1.31l.85-.39a1.55,1.55,0,0,0,.45,1,1.32,1.32,0,0,0,1,.36,1.43,1.43,0,0,0,.56-.1,1.48,1.48,0,0,0,.43-.29,1.2,1.2,0,0,0,.28-.41,1.51,1.51,0,0,0,.1-.53,1.31,1.31,0,0,0-.11-.52,1.37,1.37,0,0,0-.29-.42,1.62,1.62,0,0,0-.44-.27,1.33,1.33,0,0,0-.54-.1,1.51,1.51,0,0,0-1.25.64l-.41-.7a3.09,3.09,0,0,1,.39-.33,2.22,2.22,0,0,1-1-2.83,2.25,2.25,0,0,1,.51-.72,2.38,2.38,0,0,1,.78-.5,3.1,3.1,0,0,1,1-.21l2.68-.11Zm-1,1.58a1.48,1.48,0,0,0-.44-1.06,1.52,1.52,0,0,0-.48-.31,1.49,1.49,0,0,0-.6-.11,1.44,1.44,0,0,0-.59.11,1.37,1.37,0,0,0-.49.31,1.27,1.27,0,0,0-.32.47,1.49,1.49,0,0,0,0,1.17,1.32,1.32,0,0,0,.32.46,1.56,1.56,0,0,0,.48.3,1.61,1.61,0,0,0,1.68-.3,1.47,1.47,0,0,0,.32-.46A1.4,1.4,0,0,0,113.71,39.68Z"/><path class="cls-2" d="M119.49,41.44a4,4,0,0,0,.76.4A2.06,2.06,0,0,0,121,42a.89.89,0,0,0,.6-.2.74.74,0,0,0,.22-.54.6.6,0,0,0-.19-.46,1.62,1.62,0,0,0-.69-.34l-.22-.07a2,2,0,0,1-.92-.61,1.49,1.49,0,0,1-.32-.94,1.43,1.43,0,0,1,.12-.58,1.54,1.54,0,0,1,.33-.47,1.79,1.79,0,0,1,.52-.31,2,2,0,0,1,.65-.11,2.69,2.69,0,0,1,.73.11,3.47,3.47,0,0,1,.73.29l-.17.85a2.5,2.5,0,0,0-.66-.32,2.13,2.13,0,0,0-.6-.11.78.78,0,0,0-.55.18.59.59,0,0,0-.19.46.52.52,0,0,0,.17.4,1.64,1.64,0,0,0,.62.34l.22.07a2.34,2.34,0,0,1,1,.63,1.45,1.45,0,0,1,.35,1,1.53,1.53,0,0,1-.13.64,1.45,1.45,0,0,1-.36.49,1.33,1.33,0,0,1-.55.33,2,2,0,0,1-.71.12,2.92,2.92,0,0,1-.86-.14,3,3,0,0,1-.81-.39Z"/><path class="cls-2" d="M124.22,40.09a2.7,2.7,0,0,1,.81-1.93,2.79,2.79,0,0,1,2-.81,2.7,2.7,0,0,1,1.1.22,2.82,2.82,0,0,1,.89.59,2.69,2.69,0,0,1,.59,3A2.91,2.91,0,0,1,129,42a2.79,2.79,0,0,1-.89.58,2.87,2.87,0,0,1-1.1.21,2.82,2.82,0,0,1-2-.79,2.73,2.73,0,0,1-.59-.87A2.55,2.55,0,0,1,124.22,40.09Zm4.59,0a2,2,0,0,0-.14-.72,1.91,1.91,0,0,0-.39-.58,2.06,2.06,0,0,0-.57-.39,1.9,1.9,0,0,0-1.43,0,2,2,0,0,0-.56.39,1.72,1.72,0,0,0-.38.58,2,2,0,0,0-.14.72,1.94,1.94,0,0,0,.14.73,1.58,1.58,0,0,0,.38.59,2,2,0,0,0,.56.39,1.9,1.9,0,0,0,1.43,0,2.06,2.06,0,0,0,.57-.39,1.74,1.74,0,0,0,.39-.59A1.94,1.94,0,0,0,128.81,40.07Zm-3.35-5.17,2.12-1,.31.68-2.16.94Zm2.6,2.05L127,36.13,126,37l-.39-.43L127,35.25l1.46,1.27Z"/></g></g></svg>