<svg width="24" height="24" viewBox="0 0 24 24" fill="none" xmlns="http://www.w3.org/2000/svg">
<path d="M18 3H6C4.346 3 3 4.346 3 6V18C3 19.654 4.346 21 6 21H18C19.654 21 21 19.654 21 18V6C21 4.346 19.654 3 18 3" fill="#FCA804"/>
<path d="M13 12C13 12.552 12.552 13 12 13C11.448 13 11 12.552 11 12V8C11 7.448 11.448 7 12 7C12.552 7 13 7.448 13 8V12Z" fill="white"/>
<path d="M12 16C11.448 16 11 15.552 11 15C11 14.448 11.448 14 12 14C12.552 14 13 14.448 13 15C13 15.552 12.552 16 12 16V16Z" fill="white"/>
</svg>
