<svg width="24" height="24" viewBox="0 0 24 24" fill="none" xmlns="http://www.w3.org/2000/svg">
<path d="M12 2C6.486 2 2 6.486 2 12C2 17.514 6.486 22 12 22C17.514 22 22 17.514 22 12C22 6.486 17.514 2 12 2" fill="#FCC504"/>
<path d="M15.3333 14L16.6667 14C16.8507 14 17 13.8508 17 13.6667L17 8.33332C17 8.14922 16.8508 8 16.6667 8L15.3333 8C15.1493 8 15 8.14922 15 8.33332L15 13.6667C15 13.8508 15.1492 14 15.3333 14Z" fill="white"/>
<path d="M6.00724 13.4819C6.07136 14.0359 6.59827 14.4286 7.16603 14.4286L10.0011 14.4286C9.7601 14.8523 9.63077 16.0507 9.63652 16.5403C9.64604 17.3506 10.3293 18 11.1544 18L11.4545 18C11.6555 18 11.8182 17.8403 11.8182 17.6428C11.8182 16.817 12.1456 15.3263 12.7631 14.7198C13.1787 14.3116 13.5341 14.1637 14 13.935L14 8.57605C13.2867 8.34256 12.381 8 11.0005 8L8.62173 8C7.83791 8 7.22748 8.71295 7.53124 9.46621C7.06851 9.59002 6.72724 10.0068 6.72724 10.5C6.72724 10.6392 6.75457 10.7724 6.80397 10.8948C6.02415 11.1035 5.73717 12.0491 6.27839 12.6429C6.07954 12.861 5.9699 13.1595 6.00724 13.4819Z" fill="white"/>
</svg>
