<svg id="Layer_1" data-name="Layer 1" xmlns="http://www.w3.org/2000/svg" xmlns:xlink="http://www.w3.org/1999/xlink" viewBox="0 0 1920 112"><defs><style>.cls-1{fill:#fafbff;}.cls-2{opacity:0.3;}.cls-3{fill:url(#linear-gradient);}.cls-4{fill:url(#linear-gradient-2);}.cls-5{fill:url(#linear-gradient-3);}.cls-6{fill:url(#linear-gradient-4);}.cls-7{fill:url(#linear-gradient-5);}.cls-8{fill:url(#linear-gradient-6);}.cls-9{fill:url(#linear-gradient-7);}.cls-10{fill:url(#linear-gradient-8);}.cls-11{fill:url(#linear-gradient-9);}.cls-12{fill:url(#linear-gradient-10);}.cls-13{fill:url(#linear-gradient-11);}.cls-14{fill:url(#linear-gradient-12);}.cls-15{fill:url(#linear-gradient-13);}.cls-16{fill:url(#linear-gradient-14);}.cls-17{fill:url(#linear-gradient-15);}.cls-18{fill:url(#linear-gradient-16);}.cls-19{fill:url(#linear-gradient-17);}.cls-20{fill:url(#linear-gradient-18);}.cls-21{fill:url(#linear-gradient-19);}.cls-22{fill:url(#linear-gradient-20);}.cls-23{fill:url(#linear-gradient-21);}.cls-24{fill:url(#linear-gradient-22);}.cls-25{fill:url(#linear-gradient-23);}.cls-26{fill:url(#linear-gradient-24);}.cls-27{fill:url(#linear-gradient-25);}.cls-28{fill:url(#linear-gradient-26);}.cls-29{fill:url(#linear-gradient-27);}.cls-30{fill:url(#linear-gradient-28);}.cls-31{fill:url(#linear-gradient-29);}.cls-32{fill:url(#linear-gradient-30);}.cls-33{fill:url(#linear-gradient-31);}.cls-34{fill:url(#linear-gradient-32);}.cls-35{fill:url(#linear-gradient-33);}.cls-36{fill:url(#linear-gradient-34);}.cls-37{fill:url(#linear-gradient-35);}.cls-38{fill:url(#linear-gradient-36);}.cls-39{fill:url(#linear-gradient-37);}.cls-40{fill:url(#linear-gradient-38);}.cls-41{fill:url(#linear-gradient-39);}.cls-42{fill:url(#linear-gradient-40);}.cls-43{fill:url(#linear-gradient-41);}.cls-44{fill:url(#linear-gradient-42);}.cls-45{fill:url(#linear-gradient-43);}.cls-46{fill:url(#linear-gradient-44);}.cls-47{fill:url(#linear-gradient-45);}.cls-48{fill:url(#linear-gradient-46);}.cls-49{fill:url(#linear-gradient-47);}.cls-50{fill:url(#linear-gradient-48);}.cls-51{fill:url(#linear-gradient-49);}.cls-52{fill:url(#linear-gradient-50);}.cls-53{fill:url(#linear-gradient-51);}.cls-54{fill:url(#linear-gradient-52);}.cls-55{fill:url(#linear-gradient-53);}.cls-56{fill:url(#linear-gradient-54);}.cls-57{fill:url(#linear-gradient-55);}.cls-58{fill:url(#linear-gradient-56);}.cls-59{fill:url(#linear-gradient-57);}.cls-60{fill:url(#linear-gradient-58);}.cls-61{fill:url(#linear-gradient-59);}.cls-62{fill:url(#linear-gradient-60);}.cls-63{fill:url(#linear-gradient-61);}.cls-64{fill:url(#linear-gradient-62);}.cls-65{fill:url(#linear-gradient-63);}.cls-66{fill:url(#linear-gradient-64);}.cls-67{fill:url(#linear-gradient-65);}.cls-68{fill:url(#linear-gradient-66);}.cls-69{fill:url(#linear-gradient-67);}.cls-70{fill:url(#linear-gradient-68);}.cls-71{fill:url(#linear-gradient-69);}.cls-72{fill:url(#linear-gradient-70);}.cls-73{fill:url(#linear-gradient-71);}.cls-74{fill:url(#linear-gradient-72);}.cls-75{fill:url(#linear-gradient-73);}.cls-76{fill:url(#linear-gradient-74);}.cls-77{fill:url(#linear-gradient-75);}.cls-78{fill:url(#linear-gradient-76);}.cls-79{fill:url(#linear-gradient-77);}.cls-80{fill:url(#linear-gradient-78);}.cls-81{fill:url(#linear-gradient-79);}.cls-82{fill:url(#linear-gradient-80);}.cls-83{fill:url(#linear-gradient-81);}.cls-84{fill:url(#linear-gradient-82);}.cls-85{fill:url(#linear-gradient-83);}</style><linearGradient id="linear-gradient" x1="1512.88" y1="17.14" x2="1512.88" y2="209.83" gradientTransform="translate(1463.1 1562.66) rotate(-90)" gradientUnits="userSpaceOnUse"><stop offset="0" stop-color="#33ccf4"/><stop offset="1" stop-color="#58b3ff"/></linearGradient><linearGradient id="linear-gradient-2" x1="1665.09" y1="17.14" x2="1665.09" y2="209.83" gradientTransform="translate(1608.89 1721.28) rotate(-90)" xlink:href="#linear-gradient"/><linearGradient id="linear-gradient-3" x1="833" y1="17.14" x2="833" y2="209.83" gradientTransform="translate(769.3 896.7) rotate(-90)" xlink:href="#linear-gradient"/><linearGradient id="linear-gradient-4" x1="736.38" y1="17.14" x2="736.38" y2="209.83" gradientTransform="translate(680.9 791.87) rotate(-90)" xlink:href="#linear-gradient"/><linearGradient id="linear-gradient-5" x1="745.35" y1="17.14" x2="745.35" y2="209.83" gradientTransform="translate(689.86 800.83) rotate(-90)" xlink:href="#linear-gradient"/><linearGradient id="linear-gradient-6" x1="754.31" y1="17.14" x2="754.31" y2="209.83" gradientTransform="translate(698.83 809.8) rotate(-90)" xlink:href="#linear-gradient"/><linearGradient id="linear-gradient-7" x1="763.28" y1="17.14" x2="763.28" y2="209.83" gradientTransform="translate(707.79 818.76) rotate(-90)" xlink:href="#linear-gradient"/><linearGradient id="linear-gradient-8" x1="772.24" y1="17.14" x2="772.24" y2="209.83" gradientTransform="translate(716.76 827.73) rotate(-90)" xlink:href="#linear-gradient"/><linearGradient id="linear-gradient-9" x1="781.21" y1="17.14" x2="781.21" y2="209.83" gradientTransform="translate(725.72 836.69) rotate(-90)" xlink:href="#linear-gradient"/><linearGradient id="linear-gradient-10" x1="790.17" y1="17.14" x2="790.17" y2="209.83" gradientTransform="translate(734.69 845.66) rotate(-90)" xlink:href="#linear-gradient"/><linearGradient id="linear-gradient-11" x1="875.69" y1="17.14" x2="875.69" y2="209.83" gradientTransform="translate(802.25 949.13) rotate(-90)" xlink:href="#linear-gradient"/><linearGradient id="linear-gradient-12" x1="884.65" y1="17.14" x2="884.65" y2="209.83" gradientTransform="translate(811.22 958.09) rotate(-90)" xlink:href="#linear-gradient"/><linearGradient id="linear-gradient-13" x1="893.62" y1="17.14" x2="893.62" y2="209.83" gradientTransform="translate(820.18 967.06) rotate(-90)" xlink:href="#linear-gradient"/><linearGradient id="linear-gradient-14" x1="902.58" y1="17.14" x2="902.58" y2="209.83" gradientTransform="translate(829.12 976.02) rotate(-90)" xlink:href="#linear-gradient"/><linearGradient id="linear-gradient-15" x1="911.55" y1="17.14" x2="911.55" y2="209.83" gradientTransform="translate(838.11 984.99) rotate(-90)" xlink:href="#linear-gradient"/><linearGradient id="linear-gradient-16" x1="920.51" y1="17.14" x2="920.51" y2="209.83" gradientTransform="translate(847.08 993.95) rotate(-90)" xlink:href="#linear-gradient"/><linearGradient id="linear-gradient-17" x1="929.48" y1="17.14" x2="929.48" y2="209.83" gradientTransform="translate(856.07 1002.92) rotate(-90)" xlink:href="#linear-gradient"/><linearGradient id="linear-gradient-18" x1="1377.69" y1="17.14" x2="1377.69" y2="209.83" gradientTransform="translate(1328.25 1427.13) rotate(-90)" xlink:href="#linear-gradient"/><linearGradient id="linear-gradient-19" x1="1386.65" y1="17.14" x2="1386.65" y2="209.83" gradientTransform="translate(1337.22 1436.09) rotate(-90)" xlink:href="#linear-gradient"/><linearGradient id="linear-gradient-20" x1="1395.62" y1="17.14" x2="1395.62" y2="209.83" gradientTransform="translate(1346.18 1445.06) rotate(-90)" xlink:href="#linear-gradient"/><linearGradient id="linear-gradient-21" x1="1404.58" y1="17.14" x2="1404.58" y2="209.83" gradientTransform="translate(1355.11 1454.02) rotate(-90)" xlink:href="#linear-gradient"/><linearGradient id="linear-gradient-22" x1="1413.55" y1="17.14" x2="1413.55" y2="209.83" gradientTransform="translate(1364.11 1462.99) rotate(-90)" xlink:href="#linear-gradient"/><linearGradient id="linear-gradient-23" x1="1422.51" y1="17.14" x2="1422.51" y2="209.83" gradientTransform="translate(1373.08 1471.95) rotate(-90)" xlink:href="#linear-gradient"/><linearGradient id="linear-gradient-24" x1="1431.48" y1="17.14" x2="1431.48" y2="209.83" gradientTransform="translate(1382.08 1480.92) rotate(-90)" xlink:href="#linear-gradient"/><linearGradient id="linear-gradient-25" x1="1687.69" y1="17.14" x2="1687.69" y2="209.83" gradientTransform="translate(1612.25 1763.13) rotate(-90)" xlink:href="#linear-gradient"/><linearGradient id="linear-gradient-26" x1="1696.65" y1="17.14" x2="1696.65" y2="209.83" gradientTransform="translate(1621.22 1772.09) rotate(-90)" xlink:href="#linear-gradient"/><linearGradient id="linear-gradient-27" x1="1705.62" y1="17.14" x2="1705.62" y2="209.83" gradientTransform="translate(1630.18 1781.06) rotate(-90)" xlink:href="#linear-gradient"/><linearGradient id="linear-gradient-28" x1="1714.58" y1="17.14" x2="1714.58" y2="209.83" gradientTransform="translate(1639.1 1790.02) rotate(-90)" xlink:href="#linear-gradient"/><linearGradient id="linear-gradient-29" x1="1723.55" y1="17.14" x2="1723.55" y2="209.83" gradientTransform="translate(1648.11 1798.99) rotate(-90)" xlink:href="#linear-gradient"/><linearGradient id="linear-gradient-30" x1="1732.51" y1="17.14" x2="1732.51" y2="209.83" gradientTransform="translate(1657.08 1807.95) rotate(-90)" xlink:href="#linear-gradient"/><linearGradient id="linear-gradient-31" x1="1741.48" y1="17.14" x2="1741.48" y2="209.83" gradientTransform="translate(1666.09 1816.92) rotate(-90)" xlink:href="#linear-gradient"/><linearGradient id="linear-gradient-32" x1="759.21" y1="17.14" x2="759.21" y2="209.83" gradientTransform="matrix(1, 0, 0, 1, 0, 0)" xlink:href="#linear-gradient"/><linearGradient id="linear-gradient-33" x1="494.58" y1="17.14" x2="494.58" y2="209.83" gradientTransform="matrix(1, 0, 0, 1, 0, 0)" xlink:href="#linear-gradient"/><linearGradient id="linear-gradient-34" x1="893.29" y1="17.14" x2="893.29" y2="209.83" gradientTransform="matrix(1, 0, 0, 1, 0, 0)" xlink:href="#linear-gradient"/><linearGradient id="linear-gradient-35" x1="803.6" y1="17.14" x2="803.6" y2="209.83" gradientTransform="translate(206.54 580.17) rotate(-45)" xlink:href="#linear-gradient"/><linearGradient id="linear-gradient-36" x1="812.37" y1="17.14" x2="812.37" y2="209.83" gradientTransform="matrix(1, 0, 0, 1, 0, 0)" xlink:href="#linear-gradient"/><linearGradient id="linear-gradient-37" x1="586.8" y1="17.14" x2="586.8" y2="209.83" gradientTransform="translate(1069.08 -252.32) rotate(135)" xlink:href="#linear-gradient"/><linearGradient id="linear-gradient-38" x1="772.55" y1="17.14" x2="772.55" y2="209.83" gradientTransform="translate(1386.84 -382.05) rotate(135)" xlink:href="#linear-gradient"/><linearGradient id="linear-gradient-39" x1="910.39" y1="17.14" x2="910.39" y2="209.83" gradientTransform="matrix(1, 0, 0, 1, 0, 0)" xlink:href="#linear-gradient"/><linearGradient id="linear-gradient-40" x1="918.65" y1="17.14" x2="918.65" y2="209.83" gradientTransform="matrix(1, 0, 0, 1, 0, 0)" xlink:href="#linear-gradient"/><linearGradient id="linear-gradient-41" x1="926.9" y1="17.14" x2="926.9" y2="209.83" gradientTransform="matrix(1, 0, 0, 1, 0, 0)" xlink:href="#linear-gradient"/><linearGradient id="linear-gradient-42" x1="935.15" y1="17.14" x2="935.15" y2="209.83" gradientTransform="matrix(1, 0, 0, 1, 0, 0)" xlink:href="#linear-gradient"/><linearGradient id="linear-gradient-43" x1="943.41" y1="17.14" x2="943.41" y2="209.83" gradientTransform="matrix(1, 0, 0, 1, 0, 0)" xlink:href="#linear-gradient"/><linearGradient id="linear-gradient-44" x1="951.66" y1="17.14" x2="951.66" y2="209.83" gradientTransform="matrix(1, 0, 0, 1, 0, 0)" xlink:href="#linear-gradient"/><linearGradient id="linear-gradient-45" x1="959.91" y1="17.14" x2="959.91" y2="209.83" gradientTransform="matrix(1, 0, 0, 1, 0, 0)" xlink:href="#linear-gradient"/><linearGradient id="linear-gradient-46" x1="968.16" y1="17.14" x2="968.16" y2="209.83" gradientTransform="matrix(1, 0, 0, 1, 0, 0)" xlink:href="#linear-gradient"/><linearGradient id="linear-gradient-47" x1="1814.39" y1="17.14" x2="1814.39" y2="209.83" gradientTransform="matrix(1, 0, 0, 1, 0, 0)" xlink:href="#linear-gradient"/><linearGradient id="linear-gradient-48" x1="1822.65" y1="17.14" x2="1822.65" y2="209.83" gradientTransform="matrix(1, 0, 0, 1, 0, 0)" xlink:href="#linear-gradient"/><linearGradient id="linear-gradient-49" x1="1830.9" y1="17.14" x2="1830.9" y2="209.83" gradientTransform="matrix(1, 0, 0, 1, 0, 0)" xlink:href="#linear-gradient"/><linearGradient id="linear-gradient-50" x1="1839.15" y1="17.14" x2="1839.15" y2="209.83" gradientTransform="matrix(1, 0, 0, 1, 0, 0)" xlink:href="#linear-gradient"/><linearGradient id="linear-gradient-51" x1="1847.41" y1="17.14" x2="1847.41" y2="209.83" gradientTransform="matrix(1, 0, 0, 1, 0, 0)" xlink:href="#linear-gradient"/><linearGradient id="linear-gradient-52" x1="1855.66" y1="17.14" x2="1855.66" y2="209.83" gradientTransform="matrix(1, 0, 0, 1, 0, 0)" xlink:href="#linear-gradient"/><linearGradient id="linear-gradient-53" x1="1863.91" y1="17.14" x2="1863.91" y2="209.83" gradientTransform="matrix(1, 0, 0, 1, 0, 0)" xlink:href="#linear-gradient"/><linearGradient id="linear-gradient-54" x1="1872.16" y1="17.14" x2="1872.16" y2="209.83" gradientTransform="matrix(1, 0, 0, 1, 0, 0)" xlink:href="#linear-gradient"/><linearGradient id="linear-gradient-55" x1="1122.3" y1="17.14" x2="1122.3" y2="209.83" gradientTransform="matrix(1, 0, 0, 1, 0, 0)" xlink:href="#linear-gradient"/><linearGradient id="linear-gradient-56" x1="1128.36" y1="17.14" x2="1128.36" y2="209.83" gradientTransform="matrix(1, 0, 0, 1, 0, 0)" xlink:href="#linear-gradient"/><linearGradient id="linear-gradient-57" x1="1134.41" y1="17.14" x2="1134.41" y2="209.83" gradientTransform="matrix(1, 0, 0, 1, 0, 0)" xlink:href="#linear-gradient"/><linearGradient id="linear-gradient-58" x1="1140.47" y1="17.14" x2="1140.47" y2="209.83" gradientTransform="matrix(1, 0, 0, 1, 0, 0)" xlink:href="#linear-gradient"/><linearGradient id="linear-gradient-59" x1="1146.53" y1="17.14" x2="1146.53" y2="209.83" gradientTransform="matrix(1, 0, 0, 1, 0, 0)" xlink:href="#linear-gradient"/><linearGradient id="linear-gradient-60" x1="1152.58" y1="17.14" x2="1152.58" y2="209.83" gradientTransform="matrix(1, 0, 0, 1, 0, 0)" xlink:href="#linear-gradient"/><linearGradient id="linear-gradient-61" x1="1158.64" y1="17.14" x2="1158.64" y2="209.83" gradientTransform="matrix(1, 0, 0, 1, 0, 0)" xlink:href="#linear-gradient"/><linearGradient id="linear-gradient-62" x1="1164.69" y1="17.14" x2="1164.69" y2="209.83" gradientTransform="matrix(1, 0, 0, 1, 0, 0)" xlink:href="#linear-gradient"/><linearGradient id="linear-gradient-63" x1="554.56" y1="17.14" x2="554.56" y2="209.83" gradientTransform="matrix(1, 0, 0, 1, 0, 0)" xlink:href="#linear-gradient"/><linearGradient id="linear-gradient-64" x1="481.74" y1="17.14" x2="481.74" y2="209.83" gradientTransform="matrix(1, 0, 0, 1, 0, 0)" xlink:href="#linear-gradient"/><linearGradient id="linear-gradient-65" x1="837.19" y1="17.14" x2="837.19" y2="209.83" gradientTransform="matrix(1, 0, 0, 1, 0, 0)" xlink:href="#linear-gradient"/><linearGradient id="linear-gradient-66" x1="1062.77" y1="17.14" x2="1062.77" y2="209.83" gradientTransform="translate(1753.92 897.18) rotate(-135)" xlink:href="#linear-gradient"/><linearGradient id="linear-gradient-67" x1="667.88" y1="17.14" x2="667.88" y2="209.83" gradientTransform="translate(1219.65 -280.34) rotate(135)" xlink:href="#linear-gradient"/><linearGradient id="linear-gradient-68" x1="619.05" y1="17.14" x2="619.05" y2="209.83" gradientTransform="matrix(1, 0, 0, 1, 0, 0)" xlink:href="#linear-gradient"/><linearGradient id="linear-gradient-69" x1="530.21" y1="17.14" x2="530.21" y2="209.83" gradientTransform="translate(967.08 -225.37) rotate(135)" xlink:href="#linear-gradient"/><linearGradient id="linear-gradient-70" x1="267.79" y1="17.14" x2="267.79" y2="209.83" gradientTransform="matrix(1, 0, 0, 1, 0, 0)" xlink:href="#linear-gradient"/><linearGradient id="linear-gradient-71" x1="42.21" y1="17.14" x2="42.21" y2="209.83" gradientTransform="translate(-28.61 46.82) rotate(-45)" xlink:href="#linear-gradient"/><linearGradient id="linear-gradient-72" x1="469.61" y1="17.14" x2="469.61" y2="209.83" gradientTransform="matrix(1, 0, 0, 1, 0, 0)" xlink:href="#linear-gradient"/><linearGradient id="linear-gradient-73" x1="1473.36" y1="17.14" x2="1473.36" y2="209.83" gradientTransform="translate(364 1069.8) rotate(-45)" xlink:href="#linear-gradient"/><linearGradient id="linear-gradient-74" x1="1449.79" y1="17.14" x2="1449.79" y2="209.83" gradientTransform="matrix(1, 0, 0, 1, 0, 0)" xlink:href="#linear-gradient"/><linearGradient id="linear-gradient-75" x1="1224.21" y1="17.14" x2="1224.21" y2="209.83" gradientTransform="translate(304.86 887.89) rotate(-45)" xlink:href="#linear-gradient"/><linearGradient id="linear-gradient-76" x1="1272.61" y1="17.14" x2="1272.61" y2="209.83" gradientTransform="matrix(1, 0, 0, 1, 0, 0)" xlink:href="#linear-gradient"/><linearGradient id="linear-gradient-77" x1="1047.03" y1="17.14" x2="1047.03" y2="209.83" gradientTransform="translate(268.75 756.07) rotate(-45)" xlink:href="#linear-gradient"/><linearGradient id="linear-gradient-78" x1="755.95" y1="17.14" x2="755.95" y2="209.83" gradientTransform="matrix(1, 0, 0, 1, 0, 0)" xlink:href="#linear-gradient"/><linearGradient id="linear-gradient-79" x1="845.73" y1="17.14" x2="845.73" y2="209.83" gradientTransform="translate(269.48 -589) rotate(45)" xlink:href="#linear-gradient"/><linearGradient id="linear-gradient-80" x1="893.62" y1="17.14" x2="893.62" y2="209.83" gradientTransform="matrix(1, 0, 0, 1, 0, 0)" xlink:href="#linear-gradient"/><linearGradient id="linear-gradient-81" x1="983.4" y1="17.14" x2="983.4" y2="209.83" gradientTransform="translate(292.25 -693.62) rotate(45)" xlink:href="#linear-gradient"/><linearGradient id="linear-gradient-82" x1="877.64" y1="17.14" x2="877.64" y2="209.83" gradientTransform="matrix(1, 0, 0, 1, 0, 0)" xlink:href="#linear-gradient"/><linearGradient id="linear-gradient-83" x1="861.95" y1="17.14" x2="861.95" y2="209.83" gradientTransform="matrix(1, 0, 0, 1, 0, 0)" xlink:href="#linear-gradient"/></defs><title>header</title><rect class="cls-1" y="-0.46" width="1920" height="112"/><g class="cls-2"><rect class="cls-3" x="1498.65" y="-0.96" width="28.47" height="101.48" transform="translate(1562.66 -1463.1) rotate(90)"/><rect class="cls-4" x="1659.44" y="5.45" width="11.29" height="101.48" transform="matrix(0, 1, -1, 0, 1721.27, -1608.9)"/><rect class="cls-5" x="830.53" y="-38.48" width="4.95" height="204.35" transform="translate(896.7 -769.3) rotate(90)"/><rect class="cls-6" x="735.09" y="52.23" width="2.58" height="6.51" transform="translate(791.87 -680.9) rotate(90)"/><rect class="cls-7" x="744.06" y="52.23" width="2.58" height="6.51" transform="translate(800.83 -689.86) rotate(90)"/><rect class="cls-8" x="753.02" y="52.23" width="2.58" height="6.51" transform="translate(809.8 -698.83) rotate(90)"/><rect class="cls-9" x="761.99" y="52.23" width="2.58" height="6.51" transform="translate(818.76 -707.79) rotate(90)"/><rect class="cls-10" x="770.95" y="52.23" width="2.58" height="6.51" transform="translate(827.72 -716.76) rotate(90)"/><rect class="cls-11" x="779.92" y="52.23" width="2.58" height="6.51" transform="translate(836.69 -725.72) rotate(90)"/><rect class="cls-12" x="788.88" y="52.23" width="2.58" height="6.51" transform="translate(845.66 -734.69) rotate(90)"/><rect class="cls-13" x="874.4" y="70.18" width="2.58" height="6.51" transform="translate(949.13 -802.25) rotate(90)"/><rect class="cls-14" x="883.36" y="70.18" width="2.58" height="6.51" transform="translate(958.09 -811.22) rotate(90)"/><rect class="cls-15" x="892.33" y="70.18" width="2.58" height="6.51" transform="translate(967.06 -820.18) rotate(90)"/><rect class="cls-16" x="901.29" y="70.18" width="2.58" height="6.51" transform="translate(976 -829.15) rotate(90)"/><rect class="cls-17" x="910.26" y="70.18" width="2.58" height="6.51" transform="translate(984.99 -838.11) rotate(90)"/><rect class="cls-18" x="919.22" y="70.18" width="2.58" height="6.51" transform="translate(993.95 -847.08) rotate(90)"/><rect class="cls-19" x="928.19" y="70.18" width="2.58" height="6.51" transform="matrix(0, 1, -1, 0, 1002.94, -856.04)"/><rect class="cls-20" x="1376.4" y="46.18" width="2.58" height="6.51" transform="translate(1427.13 -1328.25) rotate(90)"/><rect class="cls-21" x="1385.36" y="46.18" width="2.58" height="6.51" transform="translate(1436.09 -1337.22) rotate(90)"/><rect class="cls-22" x="1394.33" y="46.18" width="2.58" height="6.51" transform="translate(1445.06 -1346.18) rotate(90)"/><rect class="cls-23" x="1403.29" y="46.18" width="2.58" height="6.51" transform="translate(1453.98 -1355.15) rotate(90)"/><rect class="cls-24" x="1412.26" y="46.18" width="2.58" height="6.51" transform="translate(1462.99 -1364.11) rotate(90)"/><rect class="cls-25" x="1421.22" y="46.18" width="2.58" height="6.51" transform="translate(1471.95 -1373.08) rotate(90)"/><rect class="cls-26" x="1430.19" y="46.18" width="2.58" height="6.51" transform="matrix(0, 1, -1, 0, 1480.96, -1382.04)"/><rect class="cls-27" x="1686.4" y="72.18" width="2.58" height="6.51" transform="translate(1763.13 -1612.25) rotate(90)"/><rect class="cls-28" x="1695.36" y="72.18" width="2.58" height="6.51" transform="translate(1772.1 -1621.22) rotate(90)"/><rect class="cls-29" x="1704.33" y="72.18" width="2.58" height="6.51" transform="translate(1781.06 -1630.18) rotate(90)"/><rect class="cls-30" x="1713.29" y="72.18" width="2.58" height="6.51" transform="translate(1789.97 -1639.15) rotate(90)"/><rect class="cls-31" x="1722.26" y="72.18" width="2.58" height="6.51" transform="translate(1798.99 -1648.11) rotate(90)"/><rect class="cls-32" x="1731.22" y="72.18" width="2.58" height="6.51" transform="translate(1807.95 -1657.08) rotate(90)"/><rect class="cls-33" x="1740.19" y="72.18" width="2.58" height="6.51" transform="matrix(0, 1, -1, 0, 1816.97, -1666.04)"/><path class="cls-34" d="M682.94,39h0a6.35,6.35,0,0,1,6.33-6.33H829.14A6.35,6.35,0,0,1,835.48,39h0a6.35,6.35,0,0,1-6.34,6.34H689.28A6.35,6.35,0,0,1,682.94,39Z"/><path class="cls-35" d="M418.31,44.74h0a6.35,6.35,0,0,1,6.34-6.34H564.51a6.35,6.35,0,0,1,6.34,6.34h0a6.35,6.35,0,0,1-6.34,6.34H424.65A6.35,6.35,0,0,1,418.31,44.74Z"/><polygon class="cls-36" points="983.48 491.48 982.48 491.48 982.48 306.82 803.1 306.82 803.1 40.77 804.1 40.77 804.1 305.82 983.48 305.82 983.48 491.48"/><rect class="cls-37" x="799.24" y="36.42" width="8.72" height="8.72" transform="translate(264.2 -556.29) rotate(45)"/><polygon class="cls-38" points="1037.95 275.32 771.64 275.32 771.64 95.75 586.79 95.75 586.79 94.75 772.64 94.75 772.64 274.32 1037.95 274.32 1037.95 275.32"/><rect class="cls-39" x="582.43" y="90.89" width="8.73" height="8.73" transform="translate(934.37 577.54) rotate(-135)"/><rect class="cls-40" x="768.18" y="91.83" width="8.73" height="8.73" transform="translate(1250.8 710.49) rotate(-135)"/><polygon class="cls-41" points="907.69 28.41 905.54 30.56 910.95 35.98 905.54 41.39 907.69 43.54 915.25 35.98 907.69 28.41"/><polygon class="cls-42" points="915.94 28.41 913.79 30.56 919.2 35.98 913.79 41.39 915.94 43.54 923.51 35.98 915.94 28.41"/><polygon class="cls-43" points="924.19 28.41 922.04 30.56 927.46 35.98 922.04 41.39 924.19 43.54 931.76 35.98 924.19 28.41"/><polygon class="cls-44" points="932.45 28.41 930.29 30.56 935.71 35.98 930.29 41.39 932.45 43.54 940.01 35.98 932.45 28.41"/><polygon class="cls-45" points="940.7 28.41 938.55 30.56 943.96 35.98 938.55 41.39 940.7 43.54 948.26 35.98 940.7 28.41"/><polygon class="cls-46" points="948.95 28.41 946.8 30.56 952.21 35.98 946.8 41.39 948.95 43.54 956.52 35.98 948.95 28.41"/><polygon class="cls-47" points="957.2 28.41 955.05 30.56 960.47 35.98 955.05 41.39 957.2 43.54 964.77 35.98 957.2 28.41"/><polygon class="cls-48" points="965.46 28.41 963.31 30.56 968.72 35.98 963.31 41.39 965.46 43.54 973.02 35.98 965.46 28.41"/><polygon class="cls-49" points="1811.69 55.41 1809.54 57.56 1814.95 62.98 1809.54 68.39 1811.69 70.54 1819.25 62.98 1811.69 55.41"/><polygon class="cls-50" points="1819.94 55.41 1817.79 57.56 1823.2 62.98 1817.79 68.39 1819.94 70.54 1827.51 62.98 1819.94 55.41"/><polygon class="cls-51" points="1828.19 55.41 1826.04 57.56 1831.46 62.98 1826.04 68.39 1828.19 70.54 1835.76 62.98 1828.19 55.41"/><polygon class="cls-52" points="1836.45 55.41 1834.29 57.56 1839.71 62.98 1834.29 68.39 1836.45 70.54 1844.01 62.98 1836.45 55.41"/><polygon class="cls-53" points="1844.7 55.41 1842.55 57.56 1847.96 62.98 1842.55 68.39 1844.7 70.54 1852.27 62.98 1844.7 55.41"/><polygon class="cls-54" points="1852.95 55.41 1850.8 57.56 1856.21 62.98 1850.8 68.39 1852.95 70.54 1860.52 62.98 1852.95 55.41"/><polygon class="cls-55" points="1861.2 55.41 1859.05 57.56 1864.47 62.98 1859.05 68.39 1861.2 70.54 1868.77 62.98 1861.2 55.41"/><polygon class="cls-56" points="1869.46 55.41 1867.31 57.56 1872.72 62.98 1867.31 68.39 1869.46 70.54 1877.02 62.98 1869.46 55.41"/><polygon class="cls-57" points="1120.32 68.96 1118.74 70.54 1122.71 74.51 1118.74 78.48 1120.32 80.06 1125.87 74.51 1120.32 68.96"/><polygon class="cls-58" points="1126.37 68.96 1124.79 70.54 1128.77 74.51 1124.79 78.48 1126.37 80.06 1131.92 74.51 1126.37 68.96"/><polygon class="cls-59" points="1132.43 68.96 1130.85 70.54 1134.82 74.51 1130.85 78.49 1132.43 80.06 1137.98 74.51 1132.43 68.96"/><polygon class="cls-60" points="1138.48 68.96 1136.9 70.54 1140.88 74.51 1136.9 78.49 1138.48 80.06 1144.04 74.51 1138.48 68.96"/><polygon class="cls-61" points="1144.54 68.96 1142.96 70.54 1146.93 74.51 1142.96 78.48 1144.54 80.06 1150.09 74.51 1144.54 68.96"/><polygon class="cls-62" points="1150.59 68.96 1149.02 70.54 1152.99 74.51 1149.02 78.49 1150.59 80.06 1156.15 74.51 1150.59 68.96"/><polygon class="cls-63" points="1156.65 68.96 1155.07 70.54 1159.04 74.51 1155.07 78.49 1156.65 80.06 1162.2 74.51 1156.65 68.96"/><polygon class="cls-64" points="1162.7 68.96 1161.13 70.54 1165.1 74.51 1161.13 78.48 1162.7 80.06 1168.26 74.51 1162.7 68.96"/><polygon class="cls-65" points="615.88 68.2 481.74 68.2 481.74 67.2 614.88 67.2 614.88 35.83 627.38 35.83 627.38 36.83 615.88 36.83 615.88 68.2"/><path class="cls-66" d="M479.64,69.8a3,3,0,1,0,0-4.2A3,3,0,0,0,479.64,69.8Z"/><polygon class="cls-67" points="797.46 265.41 611.62 265.41 611.62 264.41 796.46 264.41 796.46 84.84 1062.77 84.84 1062.77 85.84 797.46 85.84 797.46 265.41"/><rect class="cls-68" x="1058.41" y="80.98" width="8.73" height="8.73" transform="translate(1874.61 -605.8) rotate(135)"/><rect class="cls-69" x="663.52" y="108.06" width="8.73" height="8.73" transform="translate(1060.65 664.19) rotate(-135)"/><polygon class="cls-70" points="709.33 353 708.33 353 708.33 87.69 528.77 87.69 528.77 -98.15 529.77 -98.15 529.77 86.69 709.33 86.69 709.33 353"/><rect class="cls-71" x="525.85" y="83.24" width="8.73" height="8.73" transform="translate(843.19 524.46) rotate(-135)"/><polygon class="cls-72" points="493.36 238.01 307.52 238.01 307.52 58.45 42.21 58.45 42.21 57.45 308.52 57.45 308.52 237.01 493.36 237.01 493.36 238.01"/><rect class="cls-73" x="37.85" y="53.59" width="8.73" height="8.73" transform="translate(53.34 -12.87) rotate(45)"/><polygon class="cls-74" points="695.18 259.69 509.34 259.69 509.34 80.12 244.03 80.12 244.03 79.12 510.34 79.12 510.34 258.69 695.18 258.69 695.18 259.69"/><rect class="cls-75" x="1469" y="91.15" width="8.73" height="8.73" transform="translate(499.08 -1013.85) rotate(45)"/><polygon class="cls-76" points="1675.36 256.01 1489.52 256.01 1489.52 76.45 1224.21 76.45 1224.21 75.45 1490.52 75.45 1490.52 255.01 1675.36 255.01 1675.36 256.01"/><rect class="cls-77" x="1219.85" y="71.59" width="8.73" height="8.73" transform="translate(412.27 -843.4) rotate(45)"/><polygon class="cls-78" points="1498.18 233.69 1312.34 233.69 1312.34 54.12 1047.03 54.12 1047.03 53.12 1313.34 53.12 1313.34 232.69 1498.18 232.69 1498.18 233.69"/><rect class="cls-79" x="1042.67" y="49.26" width="8.73" height="8.73" transform="translate(344.59 -724.66) rotate(45)"/><polygon class="cls-80" points="666.67 481.95 665.67 481.95 665.67 215.64 845.23 215.64 845.23 30.8 846.23 30.8 846.23 216.64 666.67 216.64 666.67 481.95"/><rect class="cls-81" x="841.36" y="26.43" width="8.73" height="8.73" transform="translate(225.93 607.04) rotate(-45)"/><polygon class="cls-82" points="804.34 457.13 803.34 457.13 803.34 190.82 982.9 190.82 982.9 5.97 983.9 5.97 983.9 191.82 804.34 191.82 804.34 457.13"/><rect class="cls-83" x="979.04" y="1.61" width="8.73" height="8.73" transform="translate(283.81 697.12) rotate(-45)"/><polygon class="cls-84" points="893.83 152.55 892.83 152.55 892.83 141.06 861.45 141.06 861.45 6.92 862.45 6.92 862.45 140.06 893.83 140.06 893.83 152.55"/><path class="cls-85" d="M859.85,4.82a3,3,0,1,0,4.2,0A3,3,0,0,0,859.85,4.82Z"/></g></svg>