<svg width="34" height="34" viewBox="0 0 34 34" fill="none" xmlns="http://www.w3.org/2000/svg">
<path fill-rule="evenodd" clip-rule="evenodd" d="M30.9124 15.9234C30.8681 15.5495 30.4092 15.2685 30.0123 15.2685C28.7293 15.2685 27.5908 14.5529 27.1134 13.446C26.6256 12.3124 26.9401 10.9903 27.8963 10.157C28.1973 9.89564 28.2338 9.45808 27.9814 9.15413C27.3247 8.36195 26.5784 7.64637 25.7635 7.0262C25.4443 6.78292 24.9761 6.81677 24.6994 7.10785C23.8649 7.98585 22.3659 8.31216 21.2076 7.85302C20.0022 7.37132 19.2421 6.21095 19.3165 4.96537C19.341 4.57412 19.04 4.23395 18.6294 4.18852C17.5836 4.07361 16.5287 4.07005 15.4798 4.1806C15.0739 4.22316 14.7729 4.55532 14.7865 4.94161C14.8322 6.17492 14.0629 7.315 12.8695 7.77939C11.725 8.22348 10.2366 7.89994 9.40373 7.02976C9.12847 6.74313 8.66788 6.7079 8.34721 6.94534C7.50812 7.57075 6.74498 8.28693 6.08227 9.07258C5.82379 9.37801 5.86182 9.82072 6.16583 10.0835C7.14025 10.9218 7.45488 12.2554 6.94866 13.4021C6.46535 14.4953 5.27037 15.1999 3.90235 15.1999C3.45843 15.1864 3.14223 15.4694 3.09368 15.8529C2.97054 16.8521 2.96908 17.8703 3.08764 18.8776C3.1316 19.2531 3.60449 19.5316 4.0057 19.5316C5.22485 19.502 6.39534 20.2191 6.88635 21.3542C7.37581 22.4879 7.06117 23.8092 6.10352 24.6431C5.804 24.9045 5.76597 25.3414 6.01841 25.6453C6.66893 26.4325 7.4154 27.1487 8.23323 27.7741C8.55401 28.0196 9.02075 27.985 9.29881 27.6939C10.1364 26.8137 11.6353 26.488 12.789 26.948C13.9975 27.4282 14.7576 28.5885 14.6832 29.8348C14.6589 30.2262 14.9614 30.567 15.3703 30.6117C15.9053 30.671 16.4435 30.7006 16.9831 30.7006C17.4954 30.7006 18.0078 30.6739 18.52 30.6198C18.926 30.5772 19.2268 30.245 19.2132 29.858C19.1662 28.6254 19.9368 27.4854 21.1287 27.0218C22.2808 26.5747 23.763 26.9019 24.596 27.7712C24.8728 28.0572 25.3302 28.0918 25.6526 27.8551C26.4901 27.2312 27.2517 26.5156 27.9175 25.7278C28.1759 25.423 28.1394 24.9796 27.8339 24.717C26.8595 23.8787 26.5433 22.5449 27.0495 21.399C27.5254 20.3202 28.676 19.596 29.9136 19.596L30.0867 19.6002C30.4881 19.6312 30.8575 19.3374 30.9061 18.9482C31.0295 17.948 31.0309 16.9308 30.9124 15.9234ZM17.0222 21.8648C14.447 21.8648 12.3523 19.8749 12.3523 17.4284C12.3523 14.9821 14.447 12.992 17.0222 12.992C19.5973 12.992 21.692 14.9821 21.692 17.4284C21.692 19.8749 19.5973 21.8648 17.0222 21.8648Z" fill="white"/>
</svg>
