<svg width="34" height="34" viewBox="0 0 34 34" fill="none" xmlns="http://www.w3.org/2000/svg">
<path fill-rule="evenodd" clip-rule="evenodd" d="M24.2978 10.2489C26.5724 10.2489 28.4222 8.39908 28.4222 6.12444C28.4222 3.84981 26.5724 2 24.2978 2C22.0232 2 20.1733 3.84981 20.1733 6.12444C20.1733 8.39908 22.0232 10.2489 24.2978 10.2489ZM30.4845 20.56C31.0547 20.56 31.5156 20.0981 31.5156 19.5289C31.5156 15.5488 28.2769 12.3111 24.2978 12.3111C22.8953 12.3111 21.5848 12.7133 20.4757 13.4085C21.4152 14.318 22 15.5919 22 17C22 18.392 21.4286 19.6527 20.508 20.56H30.4845Z" fill="white"/>
<path fill-rule="evenodd" clip-rule="evenodd" d="M9.21777 10.2489C11.4924 10.2489 13.3422 8.39908 13.3422 6.12444C13.3422 3.84981 11.4924 2 9.21777 2C6.94314 2 5.09332 3.84981 5.09332 6.12444C5.09332 8.39908 6.94314 10.2489 9.21777 10.2489ZM13.334 13.603C12.5065 14.4954 12 15.6895 12 17C12 18.392 12.5714 19.6527 13.4921 20.56H3.03111C2.46091 20.56 2 20.0981 2 19.5289C2 15.5488 5.23872 12.3111 9.21778 12.3111C10.7463 12.3111 12.1656 12.7889 13.334 13.603Z" fill="white"/>
<path fill-rule="evenodd" clip-rule="evenodd" d="M21 17C21 19.206 19.206 21 17 21C14.794 21 13 19.206 13 17C13 14.794 14.794 13 17 13C19.206 13 21 14.794 21 17ZM24.4356 29.9689C24.4356 30.5381 23.9747 31 23.4044 31H11.0311C10.4609 31 10 30.5381 10 29.9689C10 25.9888 13.2387 22.7511 17.2178 22.7511C21.1968 22.7511 24.4356 25.9888 24.4356 29.9689Z" fill="white"/>
</svg>
