<svg width="32" height="32" viewBox="0 0 32 32" fill="none" xmlns="http://www.w3.org/2000/svg">
<path fill-rule="evenodd" clip-rule="evenodd" d="M24.7525 6.03125C25.44 6.035 25.9963 6.59251 25.9963 7.28003L26 13.4989C26.0013 14.189 25.4413 14.7502 24.7513 14.7502H24.75C24.06 14.7502 23.5012 14.1902 23.5 13.5014L23.4975 10.2701L19.3836 14.384C19.1399 14.6277 18.8199 14.7502 18.4998 14.7502C18.1811 14.7502 17.8611 14.6277 17.6161 14.384C17.1286 13.8952 17.1286 13.1039 17.6161 12.6164L21.7162 8.51631L18.4948 8.50006C17.8036 8.49631 17.2461 7.93255 17.2498 7.24378C17.2536 6.55501 17.8136 6 18.4998 6H18.5061L24.7525 6.03125ZM12.6164 17.616C13.1052 17.1273 13.8952 17.1273 14.384 17.616C14.8727 18.1048 14.8727 18.8948 14.384 19.3836L10.2689 23.4987L13.5002 23.4999C14.1915 23.4999 14.7502 24.06 14.7502 24.7512C14.749 25.4412 14.1902 26 13.5002 26H13.499L7.28005 25.9963C6.59253 25.9963 6.03502 25.44 6.03127 24.7525L6.00002 18.5061C5.99627 17.816 6.55378 17.2535 7.2438 17.2498H7.25005C7.93757 17.2498 8.49633 17.8048 8.50008 18.4936L8.51633 21.7161L12.6164 17.616Z" fill="#45BDC0"/>
</svg>
