<svg width="18" height="24" viewBox="0 0 18 24" fill="none" xmlns="http://www.w3.org/2000/svg">
<path d="M15.8 10.6H13.8V7.1C13.8 5.7 13.3 4.4 12.3 3.4C11.5 2.5 10.2 2 8.9 2C7.6 2 6.4 2.5 5.4 3.5C4.5 4.5 4 5.8 4 7.1V10.6H2V7.1C2 5.2 2.7 3.4 4 2.1C5.3 0.8 7.1 0 8.9 0C10.7 0 12.5 0.8 13.8 2.1C15.1 3.4 15.8 5.2 15.8 7.1V10.6Z" fill="#D3D3D3"/>
<path d="M16.9 10.1H0.9C0.7 10.1 0.4 10.2 0.3 10.4C0.1 10.6 0 10.8 0 11V14.5C0 19.4 3.1 23.8 8.7 23.9C14.4 24 17.8 20.1 17.8 14.9V11C17.8 10.8 17.7 10.5 17.5 10.4C17.4 10.2 17.2 10.1 16.9 10.1ZM9.5 15.7V18.1C9.5 18.3 9.4 18.4 9.3 18.6C9.2 18.7 9 18.8 8.9 18.8C8.8 18.8 8.6 18.7 8.5 18.6C8.4 18.5 8.3 18.3 8.3 18.1V15.7C8 15.6 7.7 15.3 7.6 15C7.5 14.7 7.4 14.3 7.5 14C7.6 13.7 7.8 13.4 8 13.1C8.3 12.9 8.6 12.8 8.9 12.8C9.2 12.8 9.6 12.9 9.8 13.1C10.1 13.3 10.2 13.6 10.3 14C10.4 14.3 10.3 14.7 10.2 15C10.1 15.3 9.8 15.6 9.5 15.7Z" fill="#D3D3D3"/>
</svg>
