<svg width="32" height="32" viewBox="0 0 32 32" fill="none" xmlns="http://www.w3.org/2000/svg">
<circle cx="16" cy="16" r="15.5" fill="#E8F7F7" stroke="#17ADB0"/>
<path d="M9.92861 12.8124H7.52859C7.19724 12.8124 6.92857 13.0726 6.92857 13.3936V22.6933C6.92857 23.0143 7.1972 23.2745 7.52859 23.2745H9.92857C10.2599 23.2745 10.5286 23.0143 10.5286 22.6933V13.3936C10.5286 13.0726 10.26 12.8124 9.92861 12.8124Z" fill="#17ADB0"/>
<path d="M24.9166 14.3531C24.8108 13.4514 23.9414 12.8123 23.0046 12.8123H18.3268C18.7244 12.1228 18.9378 10.1724 18.9283 9.37566C18.9126 8.05685 17.7852 7 16.4238 7H15.9287C15.597 7 15.3286 7.25996 15.3286 7.58125C15.3286 8.92532 14.7884 11.3513 13.7695 12.3384C13.0837 13.0028 12.4974 13.2435 11.7286 13.6157V22.3371C12.9056 22.7171 14.4 23.2746 16.6778 23.2746H20.6027C21.896 23.2746 22.9032 22.1143 22.402 20.8884C23.1655 20.6869 23.7286 20.0086 23.7286 19.2059C23.7286 18.9794 23.6835 18.7626 23.602 18.5634C24.8887 18.2238 25.3622 16.6848 24.4692 15.7185C24.7973 15.3635 24.9782 14.8778 24.9166 14.3531Z" fill="#17ADB0"/>
</svg>
