<svg width="32" height="32" viewBox="0 0 32 32" fill="none" xmlns="http://www.w3.org/2000/svg">
<path fill-rule="evenodd" clip-rule="evenodd" d="M14.8782 16.1479C14.8761 16.1197 14.875 16.0912 14.875 16.0625V7.0625C14.875 6.4415 15.3779 5.9375 16 5.9375C16.6221 5.9375 17.125 6.4415 17.125 7.0625V16.0623L19.825 14.0375C20.3222 13.6629 21.0276 13.7653 21.4 14.2625C21.7735 14.7598 21.6722 15.4651 21.175 15.8375L16.675 19.2125C16.4759 19.3621 16.2374 19.4375 16 19.4375C15.7739 19.4375 15.5477 19.3689 15.3531 19.2327L10.8531 16.067C10.3446 15.7093 10.222 15.0073 10.5797 14.4999C10.9375 13.9914 11.6384 13.8688 12.1469 14.2265L14.8782 16.1479ZM9.25 21.6875V22.8125H22.75V21.6875C22.75 21.0688 23.2563 20.5625 23.875 20.5625C24.4937 20.5625 25 21.0688 25 21.6875V23.9375C25 24.5562 24.4937 25.0625 23.875 25.0625H8.125C7.50625 25.0625 7 24.5562 7 23.9375V21.6875C7 21.0688 7.50625 20.5625 8.125 20.5625C8.74375 20.5625 9.25 21.0688 9.25 21.6875Z" fill="#45BDC0"/>
</svg>
