<svg width="32" height="32" viewBox="0 0 32 32" fill="none" xmlns="http://www.w3.org/2000/svg">
<circle cx="16" cy="16" r="15.5" fill="#FFF8EC" stroke="#FFBE41"/>
<path d="M10 19.8H7.60002C7.26867 19.8 7 19.5314 7 19.2V9.60005C7 9.26871 7.26863 9.00004 7.60002 9.00004H10C10.3313 9.00004 10.6 9.26867 10.6 9.60005V19.2C10.6 19.5314 10.3314 19.8 10 19.8Z" fill="#FFBE41"/>
<path d="M24.9881 18.2095C24.8822 19.1403 24.0128 19.8 23.076 19.8H18.3983C18.7958 20.5118 19.0092 22.5252 18.9997 23.3476C18.984 24.709 17.8566 25.8 16.4952 25.8H16.0001C15.6685 25.8 15.4001 25.5317 15.4001 25.2C15.4001 23.8125 14.8598 21.3082 13.8409 20.2892C13.1551 19.6034 12.5688 19.3549 11.8 18.9707V9.96777C12.977 9.57546 14.4715 9 16.7492 9H20.6741C21.9674 9 22.9746 10.1978 22.4735 11.4633C23.237 11.6712 23.8 12.3715 23.8 13.2C23.8 13.4338 23.7549 13.6576 23.6735 13.8633C24.9601 14.2138 25.4337 15.8025 24.5407 16.8C24.8687 17.1665 25.0497 17.6679 24.9881 18.2095Z" fill="#FFBE41"/>
</svg>
