<svg width="34" height="34" viewBox="0 0 34 34" fill="none" xmlns="http://www.w3.org/2000/svg">
<path fill-rule="evenodd" clip-rule="evenodd" d="M26.9091 14.4545C26.9091 14.62 26.9048 14.7844 26.8965 14.9478C26.9049 15.1434 26.9091 15.3427 26.9091 15.5454C26.9091 22.8182 17.4545 29 17.4545 29C17.4545 29 8 22.8182 8 15.5454C8 15.3337 8.00379 15.1258 8.01134 14.9218C8.00381 14.767 8 14.6112 8 14.4545C8 9.23295 12.2329 5 17.4545 5C22.6762 5 26.9091 9.23295 26.9091 14.4545ZM17.4546 19.5455C20.2662 19.5455 22.5455 17.2662 22.5455 14.4546C22.5455 11.6429 20.2662 9.36364 17.4546 9.36364C14.6429 9.36364 12.3636 11.6429 12.3636 14.4546C12.3636 17.2662 14.6429 19.5455 17.4546 19.5455Z" fill="white"/>
</svg>
