<?xml version="1.0" encoding="utf-8"?>
<!-- Generator: Adobe Illustrator 22.0.1, SVG Export Plug-In . SVG Version: 6.00 Build 0)  -->
<svg version="1.1" id="Layer_1" xmlns="http://www.w3.org/2000/svg" xmlns:xlink="http://www.w3.org/1999/xlink" x="0px" y="0px"
	 viewBox="0 0 184 43.8" style="enable-background:new 0 0 184 43.8;" xml:space="preserve">
<style type="text/css">
	.st0{fill:#FFFFFF;}
</style>
<path class="st0" d="M153.5,9.3c-1.7,0-2.7-0.4-2.7-1.6V3.5c0-0.7-1.7-1.3-4.5-1.3s-4.4,0.1-4.4,1.3v5.9h-14.6c-1.6,0-2.1-0.1-2.1-1
	V7.6h10.9c1.6,0,3,0,3-0.8v-1h-11.7c-1.6,0-2.1-0.1-2.1-0.8V4.4H137c1.6,0,3.1-0.4,3.1-0.8V2.3h-33.6c-1.3,0-1.3-0.8-1.3-0.8V1.3
	c0-0.6-1.6-1.3-4.1-1.3s-4.8,0.4-4.8,1.3v0.1c0,0,0,0.8-1.3,0.8H84.4c-1.3,0-1.3-0.8-1.3-0.8V1.3C83.1,0.7,81.5,0,79,0
	s-4.8,0.4-4.8,1.3v0.1c0,0,0,0.8-1.3,0.8H41.4c-1.6,0-2.4,0.4-2.4,1.3v6.9c0,0.6,1,1.3,3.7,1.3h17.5c1.4,0,3.1-0.6,3.1-1.3v-1H50
	c-1.3,0-2.1-0.1-2.1-1V7.6h10.9c1.3,0,3,0,3-1V5.8H50c-1.3,0-2.1,0-2.1-0.6V4.7h22.2c2.3,0,4.1,0.6,4.1,2.1v3.7
	c0,0.6,2.1,1.3,4.5,1.3s4.4-0.6,4.4-1.3V6.8c0-1,1.1-2.1,3.5-2.1h6.1c2,0,3.5,0.7,3.5,2v3.8c0,0.6,1.6,1.3,4.1,1.3s4.8-0.4,4.8-1.3
	V6.7c0-1,1.7-2,3.1-2h4.5c1.6,0,3.3,0.7,3.3,2.1v3.7c0,0.6,0.7,1.3,2.7,1.3h42.4c2,0,3.5-0.6,3.5-1.3V9.3H153.5z M36.6,4
	c0,0,0.8-1.6-4.7-1.7h-6.8c-1.7,0-3.4,0.4-4.2,1.3c-0.7,0.8-5.2,5.5-5.2,5.5s-4.7-5-5.2-5.5C9.9,3,7.8,2.3,5.4,2.3H0
	c0,0,9,7.6,9.5,8.1c0.4,0.6,2.8,1.3,6.1,1.3s5.5-0.4,6.4-1.3c0.8-0.8,5.8-5.1,5.8-5.1v5.1c0,0.6,1.4,1.3,4.2,1.3s4.7-0.6,4.7-1.3
	V4.2V3.5c0-0.6-1.7-1.3-4.7-1.3"/>
<path class="st0" d="M39,43.5h-2.4c-0.8,0-1.6-0.7-1.6-1.6V20.1c0-0.8,0.7-1.6,1.6-1.6H39c0.8,0,1.6,0.7,1.6,1.6v21.8
	C40.6,42.8,39.9,43.5,39,43.5z"/>
<path class="st0" d="M88,43.5h-2.4c-0.8,0-1.6-0.7-1.6-1.6V20.1c0-0.8,0.7-1.6,1.6-1.6H88c0.8,0,1.6,0.7,1.6,1.6v21.8
	C89.6,42.8,88.9,43.5,88,43.5z"/>
<path class="st0" d="M122.9,18.5h-10.5H110H99.6c-0.8,0-1.6,0.7-1.6,1.6v2.4c0,0.8,0.7,1.6,1.6,1.6h8.9v17.7c0,0.8,0.7,1.6,1.6,1.6
	h2.4c0.8,0,1.6-0.7,1.6-1.6V24.1h8.9c0.8,0,1.6-0.7,1.6-1.6v-2.4C124.5,19.3,123.8,18.5,122.9,18.5z"/>
<path class="st0" d="M182.3,37.8h-17.7V20.1c0-0.8-0.7-1.6-1.6-1.6h-2.4c-0.8,0-1.6,0.7-1.6,1.6v21.8c0,0.8,0.7,1.6,1.6,1.6h1.7h0.8
	h19.1c0.8,0,1.6-0.7,1.6-1.6v-2.4C183.9,38.5,183.2,37.8,182.3,37.8z"/>
<path class="st0" d="M150.5,40.8l-11.4-21.2c-0.7-1.3-2.5-1.3-3.2,0l-11.4,21.2c-0.7,1.3,0.3,2.7,1.6,2.7h2.4c0.6,0,1.1-0.3,1.4-0.8
	l7.6-14.3l7.6,14.3c0.3,0.6,0.8,0.8,1.4,0.8h2.4C150.2,43.5,151.1,41.9,150.5,40.8z"/>
<path class="st0" d="M72.1,32.1v9.8c0,0.8-0.7,1.6-1.6,1.6h-2.4c0,0,0,0-0.1,0h-4.4c-0.1,0-0.3,0-0.4,0h-1.7c-3.4,0-6.5-1.4-8.8-3.7
	C50.5,37.5,49,34.4,49,31c0-6.9,5.5-12.5,12.4-12.5h1.7h12.4l-4.2,3.1l-2.7,2c-0.4,0.3-0.8,0.4-1.4,0.4h-0.1H67c0,0,0,0-0.1,0h-5.5
	c-3.8,0-6.8,3.1-6.8,6.8c0,3.5,2.8,6.5,6.2,6.8h5.7V32c0-0.8,0.7-1.6,1.6-1.6h2.4C71.4,30.6,72.1,31.3,72.1,32.1z"/>
<path class="st0" d="M14.1,37.8H9.8c-1,0-2,0.3-2.8,0.8l-7,4.9h8.8l9-6.8C16.8,37.4,15.5,37.8,14.1,37.8z"/>
<path class="st0" d="M0,18.5l6.9,4.8c0.8,0.6,1.8,0.8,2.8,0.8h4.4c1.4,0,2.7,0.4,3.8,1.1l-8.3-6.9H0V18.5z"/>
<path class="st0" d="M14.3,18.5H9.6l8.3,6.9c0.3,0.3,0.6,0.4,0.8,0.7l0.1,0.1l-0.1-0.1c1.3,1.3,2,3,2,4.8c0,2.1-1,4-2.4,5.1l0.1-0.1
	L18.3,36c-0.1,0.1-0.4,0.3-0.7,0.4l-9,6.8h5.5c6.9,0,12.4-5.5,12.4-12.5C26.7,24.1,21.2,18.5,14.3,18.5z"/>
<path class="st0" d="M14.3,25.8c2.8,0,5.2,2.3,5.2,5.2c0,3-2.3,5.2-5.2,5.2S9,34,9,31S11.4,25.8,14.3,25.8z"/>
</svg>
